<?xml version="1.0" encoding="UTF-8"?> <!-- Generator: Adobe Illustrator 23.0.4, SVG Export Plug-In . SVG Version: 6.00 Build 0) --> <svg xmlns="http://www.w3.org/2000/svg" xmlns:xlink="http://www.w3.org/1999/xlink" id="Layer_1" x="0px" y="0px" viewBox="0 0 576 512" style="enable-background:new 0 0 576 512;" xml:space="preserve"> <style type="text/css"> .st0{fill:#FFFFFF;} </style> <path class="st0" d="M80,352H16c-8.8,0-16,7.2-16,16v128c0,8.8,7.2,16,16,16h64c8.8,0,16-7.2,16-16V368C96,359.2,88.8,352,80,352z M64,480H32v-96h32V480z M560,192h-64c-8.8,0-16,7.2-16,16v288c0,8.8,7.2,16,16,16h64c8.8,0,16-7.2,16-16V208 C576,199.2,568.8,192,560,192z M544,480h-32V224h32V480z M502.8,88.7c7.4,4.6,15.9,7.3,25.2,7.3c26.5,0,48-21.5,48-48S554.5,0,528,0 s-48,21.5-48,48c0,5.5,1.1,10.7,2.8,15.6l-89.6,71.7c-7.4-4.6-15.9-7.3-25.2-7.3s-17.9,2.8-25.2,7.3l-89.6-71.7 c1.7-4.9,2.8-10.1,2.8-15.6c0-26.5-21.5-48-48-48s-48,21.5-48,48c0,7.4,1.8,14.3,4.8,20.6l-96.2,96.2c-6.3-3-13.2-4.8-20.6-4.8 c-26.5,0-48,21.5-48,48s21.5,48,48,48s48-21.5,48-48c0-7.4-1.8-14.3-4.8-20.6l96.2-96.2c6.3,3,13.2,4.8,20.6,4.8 c9.3,0,17.9-2.8,25.2-7.3l89.6,71.7c-1.7,4.9-2.8,10.1-2.8,15.6c0,26.5,21.5,48,48,48s48-21.5,48-48c0-5.5-1.1-10.7-2.8-15.6 L502.8,88.7L502.8,88.7z M528,32c8.8,0,16,7.2,16,16s-7.2,16-16,16s-16-7.2-16-16S519.2,32,528,32z M48,224c-8.8,0-16-7.2-16-16 s7.2-16,16-16s16,7.2,16,16S56.8,224,48,224z M208,64c-8.8,0-16-7.2-16-16s7.2-16,16-16s16,7.2,16,16S216.8,64,208,64z M368,192 c-8.8,0-16-7.2-16-16s7.2-16,16-16s16,7.2,16,16S376.8,192,368,192z M240,192h-64c-8.8,0-16,7.2-16,16v288c0,8.8,7.2,16,16,16h64 c8.8,0,16-7.2,16-16V208C256,199.2,248.8,192,240,192z M224,480h-32V224h32V480z M400,320h-64c-8.8,0-16,7.2-16,16v160 c0,8.8,7.2,16,16,16h64c8.8,0,16-7.2,16-16V336C416,327.2,408.8,320,400,320z M384,480h-32V352h32V480z"></path> </svg> 