<?xml version="1.0" encoding="UTF-8"?> <!-- Generator: Adobe Illustrator 24.1.2, SVG Export Plug-In . SVG Version: 6.00 Build 0) --> <svg xmlns="http://www.w3.org/2000/svg" xmlns:xlink="http://www.w3.org/1999/xlink" id="Layer_1" x="0px" y="0px" viewBox="0 0 400 400" style="enable-background:new 0 0 400 400;" xml:space="preserve"> <style type="text/css"> .st0{fill:#7F7F7F;} .st1{fill:none;stroke:#7F7F7F;stroke-width:10;stroke-miterlimit:10;} .st2{fill:none;stroke:#7F7F7F;stroke-width:10;stroke-linejoin:round;stroke-miterlimit:10;} .st3{fill:#010101;} </style> <path class="st0" d="M228.2,205.7l-61.4-69.5c-3.3-3.7-2.8-9.4,1.1-12.6l6.9-5.8c3.9-3.2,9.6-2.8,13,1l33.1,38l19.6,21.7 L228.2,205.7z M160.2,180.3l-35.9,85.2l-25.3-10l35.8-85.3L160.2,180.3z M110.7,203.8l-12.1,28.9l-25.3,3.9l-4.2-26.4L110.7,203.8z M201.6,189.9l20.9,23.8l-71.1,10.9l12.2-28.9L201.6,189.9z M318.9,198.5l-13.1,2l8.2-28.3l0.5-0.1L318.9,198.5z M97.1,264.3 l23.7,9.4c-0.3,0.5-0.5,1.1-1,1.5l-28.3,33l3.9-42.9l0.3-1.6L97.1,264.3z M168.7,160.1l-5,12L138.2,162l5-11.9 c1.9-4.5,7.2-6.8,11.9-4.9l8.5,3.4C168.3,150.4,170.5,155.5,168.7,160.1z M317.6,250.4c0,15.4-4.5,22-4.5,22s-3.4-10.9-20.9-16.6 c-0.8-0.3-1.6-0.6-2.4-0.9l9.8-33.6C305.7,224.4,317.6,232.4,317.6,250.4z"></path> <path class="st1" d="M333.6,81.2l36.5,230.5l-121.4,19.4 M192.2,340.1L57.3,361.6L18.8,107.3l267.1-41.2"></path> <path class="st2" d="M386.5,51.6l-13,40.3l-16.9-5.4c0.7-3.2-0.2-4.5-4.3-7.5c-2-1.5-4.9-2.1-7.8-2.1c-26,0.3-40,66.6-56.1,121.1 c-15.6,52.9-47.5,159-47.5,159c-4.3,11.3-14.3,15.4-25.9,11.8l-9.8-3.1c-11.7-3.7-17.8-16.4-13.3-27.7c0,0,45.1-107.9,60.2-143.9 c17.4-41.5,33.2-83.5,36.4-110.3c2.2-18-9.8-30.3-17.9-36.3c-13.3-9.8-28.3-16.8-63.8-16.8c0,0,27.9-12.3,70.2-12.3 c27.9,0,52.6,10.5,67.4,19.8c0,0,7.3,13.5,16.8,13.5c5.2,0,7.3-2.4,8.6-5.4L386.5,51.6z"></path> <path class="st3" d="M251.8,186.1L251.8,186.1l0.2,0.3L251.8,186.1z"></path> </svg> 