<?xml version="1.0" encoding="UTF-8"?> <!-- Generator: Adobe Illustrator 23.0.4, SVG Export Plug-In . SVG Version: 6.00 Build 0) --> <svg xmlns="http://www.w3.org/2000/svg" xmlns:xlink="http://www.w3.org/1999/xlink" id="NEW_WEBSITE_LOGO__x28_1_x29__xA0_Image_1_" x="0px" y="0px" viewBox="0 0 1366 327.5" style="enable-background:new 0 0 1366 327.5;" xml:space="preserve"> <style type="text/css"> .st0{fill:#F29ABF;} .st1{fill:#FFFFFF;} .st2{enable-background:new ;} </style> <path class="st0" d="M204.7,301.3c0,0-90.5-156.5,50.7-295c3.5-3.3,5.7,0.9,5.7,0.9s36,67.7,26.5,143C304,136,388.9,76.8,406.2,97 c9.6,11.2-2.5,208.2-177.4,215.8c-2.9,0.1-3.2-1.9-3.2-1.9s-0.4-1.9,2.2-2.2c2.6-0.3,109.1-14.1,129.5-113.6 c18.5-89.9-40.2-54.7-46.9-50.7c-6.7,3.9-21.9,15.4-31.9,25.7c-0.8,0.8-1.9,0.6-1.9,0.6s-1.8,0.5-1.9-3.2c-0.1-3.6,0-93.8-27.1-94.4 c-27.3-0.6-71.5,104.9-42.6,212.1c4.5,16.5,2.5,16.3,2.5,16.3S205.7,302.9,204.7,301.3z"></path> <path class="st1" d="M263.3,225.9c1.1,1.4-0.6,3.5-0.6,3.5S89.8,373,16.4,259.7C-21.8,200.6,31.7,89,136.9,92.3 c17.9,0.6,27.7,1.8,32.1,2.1c1.3,0.1,1.9,1.6,1.4,2.4c-4.8,8.8-25.5,42.1-27.9,53.7c-1.1,3.2-4.8,1.9-4.3,0 c0.2-1,10.3-27.7-3.5-30.3c-13.8-2.7-97.8-11.7-95.1,86.6c1.5,56.3,73,69.8,104.5,66.9c32.2-2.9,84.5-26,115.4-47.8 C259.5,225.9,262,224.5,263.3,225.9z"></path> <g class="st2"> <path class="st1" d="M538.6,90.5c0.9,0.9,1.2,2,1.2,3.4v56.7c0,1.4-0.5,2.6-1.2,3.4c-0.9,0.9-2,1.4-3.4,1.4s-2.6-0.5-3.4-1.2 c-0.9-0.9-1.2-2-1.2-3.6v-25h-36.7v25c0,1.4-0.5,2.6-1.2,3.4c-0.9,0.9-2,1.4-3.4,1.4c-1.4,0-2.6-0.5-3.4-1.2 c-0.9-0.9-1.2-2-1.2-3.6V93.9c0-1.4,0.5-2.6,1.2-3.4c0.9-0.9,2-1.4,3.4-1.4c1.4,0,2.6,0.5,3.4,1.4c0.9,0.9,1.2,2,1.2,3.4v23.9h36.7 V93.9c0-1.4,0.5-2.6,1.2-3.4c0.9-0.9,2-1.4,3.4-1.4C536.6,89.1,537.7,89.6,538.6,90.5z"></path> <path class="st1" d="M613.3,151.4c0,1.2-0.5,2.2-1.4,3s-2,1.2-3.3,1.2c-0.8,0-1.6-0.2-2.3-0.6c-0.8-0.5-1.2-1.1-1.6-2l-6.1-14h-34 l-6.1,14c-0.3,0.9-0.9,1.6-1.7,2s-1.6,0.6-2.3,0.6c-1.2,0-2.3-0.5-3.3-1.2c-0.9-0.8-1.4-1.9-1.4-3c0-0.5,0.2-1.1,0.5-1.9l26.3-57.3 c0.5-0.9,1.1-1.7,2-2.3s2-0.8,3-0.8c1.1,0,2,0.3,3,0.8c0.9,0.6,1.7,1.4,2,2.3l26.3,57.3C613.2,150.3,613.3,151,613.3,151.4z M568.1,131.4h27.2l-13.5-30.8L568.1,131.4z"></path> <path class="st1" d="M624.7,154.2c-0.9-0.9-1.2-2-1.2-3.6V93.9c0-1.4,0.5-2.6,1.2-3.4c0.9-0.9,2-1.4,3.4-1.4c1.6,0,2.6,0.5,3.6,1.2 c0.9,0.9,1.2,2,1.2,3.6v56.7c0,1.6-0.5,2.6-1.2,3.6s-2,1.2-3.6,1.2C626.7,155.6,625.5,155.2,624.7,154.2z"></path> <path class="st1" d="M700,151.7c0,1.1-0.5,2-1.4,2.8c-0.9,0.8-1.9,1.1-3.1,1.1c-1.7,0-3.1-0.8-4.2-2.3L678.9,134 c-1.4-2.2-3-3.7-4.5-4.7s-3.7-1.4-6.4-1.4h-10.6v22.7c0,1.6-0.5,2.6-1.2,3.6s-2,1.2-3.4,1.2c-1.4,0-2.6-0.5-3.4-1.2 c-0.9-0.9-1.2-2-1.2-3.6V94.1c0-1.4,0.5-2.5,1.2-3.4c0.8-0.8,2-1.2,3.4-1.2H676c7.3,0,12.7,1.6,16.6,4.8c3.9,3.3,5.7,7.9,5.7,14.1 c0,5.1-1.4,9.3-4.3,12.4c-3,3.3-7,5.3-12.4,6.1c1.6,0.5,3.1,1.2,4.3,2.3c1.2,1.1,2.6,2.6,3.9,4.7l9.6,15.1 C699.9,150,700,150.8,700,151.7z M674.9,120.4c4.8,0,8.4-0.9,10.7-2.8c2.3-1.9,3.4-4.8,3.4-8.9s-1.1-6.8-3.4-8.7 c-2.3-1.9-5.9-2.8-10.7-2.8h-17.4v23h17.4V120.4z"></path> <path class="st1" d="M795.1,151.4c0,1.2-0.5,2.2-1.4,3s-2,1.2-3.3,1.2c-0.8,0-1.6-0.2-2.3-0.6c-0.8-0.5-1.2-1.1-1.6-2l-6.1-14h-34 l-6.1,14c-0.3,0.9-0.9,1.6-1.7,2s-1.6,0.6-2.3,0.6c-1.2,0-2.3-0.5-3.3-1.2s-1.4-1.9-1.4-3c0-0.5,0.2-1.1,0.5-1.9l26.3-57.3 c0.5-0.9,1.1-1.7,2-2.3s2-0.8,3-0.8c1.1,0,2,0.3,3,0.8c0.9,0.6,1.7,1.4,2,2.3l26.3,57.3C794.9,150.3,795.1,151,795.1,151.4z M749.7,131.4h27.2l-13.7-30.8L749.7,131.4z"></path> <path class="st1" d="M857.6,90.5c0.8,0.9,1.2,2,1.2,3.4v56.7c0,1.4-0.5,2.6-1.2,3.4c-0.9,0.9-2,1.4-3.4,1.4c-1.6,0-2.8-0.6-3.7-1.9 l-36.4-48v45.1c0,1.4-0.5,2.6-1.2,3.4c-0.8,0.9-1.9,1.4-3.3,1.4s-2.5-0.5-3.3-1.2c-0.8-0.9-1.2-2-1.2-3.6V93.9 c0-1.4,0.5-2.6,1.2-3.4c0.9-0.9,2-1.4,3.4-1.4c1.6,0,2.8,0.6,3.7,1.9l36.4,48.2V93.9c0-1.4,0.5-2.6,1.2-3.4 c0.8-0.9,1.9-1.4,3.3-1.4C855.5,89.1,856.6,89.6,857.6,90.5z"></path> <path class="st1" d="M875.3,153.9c-0.8-0.8-1.2-2-1.2-3.4V94.3c0-1.4,0.5-2.5,1.2-3.4c0.8-0.8,2-1.2,3.4-1.2h18.2 c10.6,0,18.8,2.8,24.5,8.5c5.7,5.7,8.7,13.8,8.7,24.1s-3,18.5-8.7,24.2c-5.7,5.7-14,8.5-24.5,8.5h-18.2 C877.3,155.2,876,154.7,875.3,153.9z M896.4,147.1c16.2,0,24.1-8.2,24.1-24.9c0-16.5-8.1-24.7-24.1-24.7h-12.9v49.6H896.4z"></path> <path class="st1" d="M1015.2,127c2,2.8,3.1,6.1,3.1,10.3c0,5.6-1.9,9.9-5.7,13.2c-3.9,3.1-9.3,4.7-16.2,4.7h-23.6 c-1.6,0-2.6-0.5-3.4-1.2s-1.2-2-1.2-3.4V94.3c0-1.4,0.5-2.5,1.2-3.4c0.8-0.8,2-1.2,3.4-1.2h22.7c6.7,0,12,1.6,15.8,4.5 s5.7,7.1,5.7,12.6c0,3.4-0.9,6.5-2.8,9c-1.9,2.5-4.3,4.5-7.6,5.6C1010.1,122.4,1013.1,124.4,1015.2,127z M977.2,118h16.5 c9.2,0,13.8-3.4,13.8-10.4c0-3.4-1.1-6.1-3.4-7.8c-2.3-1.7-5.7-2.5-10.4-2.5h-16.5L977.2,118L977.2,118z M1005.8,144.7 c2.2-1.7,3.4-4.3,3.4-8.1c0-3.7-1.1-6.5-3.4-8.4c-2.3-1.9-5.7-2.8-10.4-2.8h-18v21.7h18C1000,147.4,1003.4,146.6,1005.8,144.7z"></path> <path class="st1" d="M1032,153.9c-0.8-0.8-1.2-2-1.2-3.4V94.3c0-1.4,0.5-2.5,1.2-3.4c0.8-0.8,2-1.2,3.4-1.2h34.2 c1.4,0,2.5,0.3,3.3,1.1c0.8,0.6,1.1,1.7,1.1,3c0,1.2-0.3,2.2-1.1,2.8s-1.9,0.9-3.3,0.9h-29.5V118h27.7c1.4,0,2.5,0.3,3.3,1.1 c0.8,0.8,1.1,1.7,1.1,3c0,1.2-0.3,2.2-1.1,3c-0.8,0.6-1.9,1.1-3.3,1.1h-27.7v21.6h29.5c3,0,4.5,1.2,4.5,3.9c0,1.2-0.3,2.2-1.1,3 c-0.8,0.6-1.9,1.1-3.3,1.1h-34.2C1034,155.2,1032.9,154.7,1032,153.9z"></path> <path class="st1" d="M1142.1,151.4c0,1.2-0.5,2.2-1.4,3c-0.9,0.8-2,1.2-3.3,1.2c-0.8,0-1.6-0.2-2.3-0.6c-0.8-0.5-1.2-1.1-1.6-2 l-6.1-14h-34l-6.1,14c-0.3,0.9-0.9,1.6-1.7,2s-1.6,0.6-2.3,0.6c-1.2,0-2.3-0.5-3.3-1.2s-1.4-1.9-1.4-3c0-0.5,0.2-1.1,0.5-1.9 l26.3-57.3c0.5-0.9,1.1-1.7,2-2.3c0.9-0.6,2-0.8,3-0.8c1.1,0,2,0.3,3,0.8c0.9,0.6,1.7,1.4,2,2.3l26.3,57.3 C1142,150.3,1142.1,151,1142.1,151.4z M1096.9,131.4h27.2l-13.7-30.8L1096.9,131.4z"></path> <path class="st1" d="M1158,149.1c-4.5-4.5-6.8-11.2-6.8-20V93.9c0-1.6,0.5-2.6,1.2-3.6c0.9-0.9,2-1.2,3.4-1.2 c1.4,0,2.6,0.5,3.4,1.2c0.9,0.9,1.2,2,1.2,3.6v35.7c0,6.1,1.4,10.6,4.3,13.7s7.1,4.7,12.9,4.7c5.6,0,9.9-1.6,12.9-4.7 s4.3-7.6,4.3-13.7V93.9c0-1.4,0.5-2.6,1.2-3.4c0.9-0.9,2-1.4,3.4-1.4c1.4,0,2.6,0.5,3.4,1.2c0.9,0.9,1.2,2,1.2,3.6v35.1 c0,8.7-2.3,15.4-6.8,19.9c-4.5,4.5-11.2,6.8-19.9,6.8C1169.2,155.9,1162.5,153.6,1158,149.1z"></path> <path class="st1" d="M1236.3,154.2c-0.9-0.9-1.4-2-1.4-3.4V97.7h-18.6c-3,0-4.5-1.4-4.5-4c0-1.2,0.3-2.3,1.1-3s1.9-1.1,3.3-1.1 h46.8c1.4,0,2.5,0.3,3.3,1.1c0.8,0.6,1.1,1.7,1.1,3c0,2.6-1.6,4-4.5,4h-18.6v53.1c0,1.4-0.5,2.6-1.2,3.4c-0.8,0.8-2,1.4-3.6,1.4 C1238.3,155.6,1237.2,155.2,1236.3,154.2z"></path> <path class="st1" d="M1320.8,89.1c1.1,0,2.2,0.5,3,1.4c0.9,0.9,1.4,1.9,1.4,3.1c0,1.1-0.3,2-1.1,3l-21.9,27.3v26.9 c0,1.6-0.5,2.8-1.4,3.6c-0.9,0.8-2,1.2-3.4,1.2c-1.4,0-2.6-0.5-3.4-1.2c-0.9-0.8-1.2-2-1.2-3.6v-26.9l-21.9-27.3 c-0.8-0.8-1.1-1.9-1.1-3c0-1.2,0.5-2.2,1.2-3.1c0.9-0.9,1.9-1.2,3.1-1.2c1.2,0,2.3,0.6,3.3,1.7l20.2,25.5l20.2-25.5 C1318.5,89.8,1319.6,89.1,1320.8,89.1z"></path> </g> <g class="st2"> <path class="st0" d="M699.7,253c-4.2-1.2-7.6-3.1-10.1-5.4c-1.2-0.9-1.7-2.3-1.7-3.9c0-1.1,0.3-2,0.9-2.8s1.4-1.1,2.2-1.1 c0.9,0,1.9,0.5,3.1,1.2c5.4,4,11.8,6.1,18.8,6.1c5,0,8.7-0.9,11.5-2.8c2.6-1.9,4-4.5,4-7.9c0-2.8-1.2-4.8-3.7-6.1 c-2.5-1.4-6.4-2.6-12-3.9c-5.1-1.1-9.5-2.3-12.9-3.9c-3.4-1.4-5.9-3.4-7.9-5.7c-1.9-2.5-2.8-5.6-2.8-9.3c0-3.7,1.1-7.1,3.1-10.1 c2-3,5-5.3,8.7-6.8c3.7-1.7,7.9-2.5,12.7-2.5c4.3,0,8.4,0.6,12.1,1.9c3.7,1.2,6.8,3.1,9.5,5.4c1.2,1.1,1.9,2.3,1.9,3.9 c0,1.1-0.3,2-0.9,2.8c-0.6,0.8-1.4,1.2-2.3,1.2c-0.8,0-1.9-0.5-3.1-1.2c-2.8-2.2-5.6-3.7-8.1-4.7s-5.6-1.4-9-1.4 c-4.8,0-8.5,0.9-11.2,3c-2.6,2-4,4.7-4,8.1c0,3,1.2,5.3,3.6,6.7c2.3,1.6,6.1,3,11.3,4.2c5.4,1.2,9.8,2.5,13.2,3.9 c3.4,1.4,6.1,3.1,8.1,5.4c2,2.3,3,5.3,3,9c0,3.7-1.1,7-3.1,9.9c-2,3-5,5.1-8.7,6.7c-3.7,1.6-8.1,2.3-12.9,2.3 C708.4,254.9,703.9,254.3,699.7,253z"></path> <path class="st0" d="M756,248.2c-4.5-4.5-6.8-11.2-6.8-20v-35.1c0-1.6,0.5-2.6,1.2-3.6c0.9-0.9,2-1.2,3.4-1.2 c1.4,0,2.6,0.5,3.4,1.2c0.9,0.9,1.2,2,1.2,3.6v35.7c0,6.1,1.4,10.6,4.3,13.7c3,3.1,7.1,4.7,12.9,4.7c5.6,0,9.9-1.6,12.9-4.7 c3-3.1,4.3-7.6,4.3-13.7v-35.7c0-1.4,0.5-2.6,1.2-3.4c0.9-0.9,2-1.4,3.4-1.4c1.4,0,2.6,0.5,3.4,1.2c0.9,0.9,1.2,2,1.2,3.6v35.1 c0,8.7-2.3,15.4-6.8,19.9c-4.5,4.5-11.2,6.8-19.9,6.8C767.1,254.9,760.5,252.7,756,248.2z"></path> <path class="st0" d="M818.6,253.3c-0.9-0.9-1.2-2-1.2-3.6v-56.5c0-1.4,0.5-2.5,1.2-3.4c0.8-0.8,2-1.2,3.4-1.2h22.4 c7,0,12.3,1.7,16.2,5.1c3.9,3.4,5.7,8.2,5.7,14.4s-1.9,11-5.7,14.4c-3.9,3.4-9.2,5.1-16.2,5.1h-17.6v21.9c0,1.6-0.5,2.6-1.2,3.6 s-2,1.2-3.6,1.2C820.6,254.7,819.5,254.3,818.6,253.3z M843.4,220.2c9.2,0,13.8-4,13.8-12c0-7.9-4.7-12-13.8-12h-16.5v23.9H843.4z"></path> <path class="st0" d="M879.1,253.3c-0.9-0.9-1.2-2-1.2-3.6v-56.5c0-1.4,0.5-2.5,1.2-3.4c0.8-0.8,2-1.2,3.4-1.2h22.4 c7,0,12.3,1.7,16.2,5.1c3.9,3.4,5.7,8.2,5.7,14.4s-1.9,11-5.7,14.4c-3.9,3.4-9.2,5.1-16.2,5.1h-17.6v21.9c0,1.6-0.5,2.6-1.2,3.6 s-2,1.2-3.6,1.2C881.2,254.7,880.1,254.3,879.1,253.3z M904,220.2c9.2,0,13.8-4,13.8-12c0-7.9-4.7-12-13.8-12h-16.5v23.9H904z"></path> <path class="st0" d="M939.7,253c-0.8-0.8-1.2-1.9-1.2-3.3v-56.7c0-1.4,0.5-2.6,1.2-3.4c0.9-0.9,2-1.4,3.4-1.4 c1.6,0,2.6,0.5,3.6,1.2c0.9,0.9,1.2,2,1.2,3.6v53.1h28.3c1.4,0,2.5,0.3,3.3,1.1s1.1,1.7,1.1,3c0,1.2-0.3,2.3-1.1,3 c-0.8,0.6-1.9,1.1-3.3,1.1h-33.1C941.8,254.3,940.5,253.8,939.7,253z"></path> <path class="st0" d="M990.5,253.3c-0.9-0.9-1.2-2-1.2-3.6v-56.7c0-1.4,0.5-2.6,1.2-3.4c0.9-0.9,2-1.4,3.4-1.4 c1.6,0,2.6,0.5,3.6,1.2c0.9,0.9,1.2,2,1.2,3.6v56.7c0,1.6-0.5,2.6-1.2,3.6s-2,1.2-3.6,1.2C992.5,254.7,991.5,254.3,990.5,253.3z"></path> <path class="st0" d="M1015.4,253c-0.8-0.8-1.2-2-1.2-3.4v-56.2c0-1.4,0.5-2.5,1.2-3.4c0.8-0.8,2-1.2,3.4-1.2h34.2 c1.4,0,2.5,0.3,3.3,1.1c0.8,0.6,1.1,1.7,1.1,3c0,1.2-0.3,2.2-1.1,2.8c-0.8,0.6-1.9,0.9-3.3,0.9h-29.5v20.7h27.7 c1.4,0,2.5,0.3,3.3,1.1c0.8,0.8,1.1,1.7,1.1,3c0,1.2-0.3,2.2-1.1,3c-0.8,0.8-1.9,1.1-3.3,1.1h-27.7v21.6h29.5c3,0,4.5,1.2,4.5,3.9 c0,1.2-0.3,2.2-1.1,3c-0.8,0.6-1.9,1.1-3.3,1.1H1019C1017.4,254.3,1016.2,253.8,1015.4,253z"></path> <path class="st0" d="M1075.7,253c-4.2-1.2-7.6-3.1-10.1-5.4c-1.2-0.9-1.7-2.3-1.7-3.9c0-1.1,0.3-2,0.9-2.8s1.4-1.1,2.2-1.1 c0.9,0,1.9,0.5,3.1,1.2c5.4,4,11.8,6.1,18.8,6.1c5,0,8.7-0.9,11.5-2.8c2.6-1.9,4-4.5,4-7.9c0-2.8-1.2-4.8-3.7-6.1 c-2.5-1.4-6.4-2.6-12-3.9c-5.1-1.1-9.5-2.3-12.9-3.9c-3.4-1.4-5.9-3.4-7.9-5.7c-1.9-2.5-2.8-5.6-2.8-9.3c0-3.7,1.1-7.1,3.1-10.1 c2-3,5-5.3,8.7-6.8c3.7-1.7,7.9-2.5,12.7-2.5c4.3,0,8.4,0.6,12.1,1.9c3.7,1.2,6.8,3.1,9.5,5.4c1.2,1.1,1.9,2.3,1.9,3.9 c0,1.1-0.3,2-0.9,2.8c-0.6,0.8-1.4,1.2-2.3,1.2c-0.8,0-1.9-0.5-3.1-1.2c-2.8-2.2-5.6-3.7-8.1-4.7c-2.5-0.9-5.6-1.4-9-1.4 c-4.8,0-8.5,0.9-11.2,3c-2.6,2-4,4.7-4,8.1c0,3,1.2,5.3,3.6,6.7c2.3,1.6,6.1,3,11.3,4.2c5.4,1.2,9.8,2.5,13.2,3.9 c3.4,1.4,6.1,3.1,8.1,5.4c2,2.3,3,5.3,3,9c0,3.7-1.1,7-3.1,9.9c-2,3-5,5.1-8.7,6.7c-3.7,1.6-8.1,2.3-12.9,2.3 C1084.5,254.9,1080,254.3,1075.7,253z"></path> </g> </svg> 