<?xml version="1.0" encoding="UTF-8"?> <!-- Generator: Adobe Illustrator 24.1.2, SVG Export Plug-In . SVG Version: 6.00 Build 0) --> <svg xmlns="http://www.w3.org/2000/svg" xmlns:xlink="http://www.w3.org/1999/xlink" id="Layer_1" x="0px" y="0px" viewBox="0 0 101.5 117" style="enable-background:new 0 0 101.5 117;" xml:space="preserve"> <style type="text/css"> .st0{fill:#2AB5D7;} </style> <path id="XMLID_34_" class="st0" d="M99.5,75C88.4,61.8,71.4,89.6,62.3,95.6c-6.3,4.2-16,4.5-22.7,0.5c-9.2-5.4-6.4-18.5,3.3-21.6 c8.7-2.9,23.9,6.3,29.4-2.9C79,60.3,55.8,57.7,48.9,58c-12.4,0.5-24.3,4.5-31.6,13.9c-7.9,10.1-6.1,22.3,2.6,31.4 c8.9,8.6,21.7,11.9,34.6,10.9c3.3-0.2,8.8-1.6,13-4C76,105.5,101.8,77.6,99.5,75z M18.6,65.2c4.3,0.8-4-23.1-4.6-26.4 c-0.7-4-2.1-9.6-6.1-10.2c-4.6-0.7-5.8,4.6-4.9,9.2C4,42.4,14.6,64.3,18.6,65.2z M54.1,52.7c6.6,1,6.2-30.9,6.2-35.3 c0-3.9,1.5-14.7-3.7-15.7c-7.2-1.4-8,8.1-8.1,13.2C48.7,20.1,47.1,51.8,54.1,52.7z M69.9,57.9c7.2,3,12.8-29.2,13.6-33.3 c0.8-4.2,1-13.1-6.3-10.3c-3.6,1.4-4.3,7.3-4.8,10.6C71.5,28.9,64.3,55.5,69.9,57.9z M35,55.2c8.2,0.6,0.5-31.8-0.2-36.1 c-0.7-4.4-3.6-13.2-9.7-8.1c-3.1,2.6-1.7,8.6-1.1,11.9C24.5,27.2,28.7,54.7,35,55.2z"></path> </svg> 