<?xml version="1.0" encoding="UTF-8"?> <!-- Generator: Adobe Illustrator 24.1.2, SVG Export Plug-In . SVG Version: 6.00 Build 0) --> <svg xmlns="http://www.w3.org/2000/svg" xmlns:xlink="http://www.w3.org/1999/xlink" id="Layer_1" x="0px" y="0px" viewBox="0 0 160 90" style="enable-background:new 0 0 160 90;" xml:space="preserve"> <style type="text/css"> .st0{fill:#FFFFFF;} </style> <g id="OMEPYO.tif"> </g> <g> <path class="st0" d="M134.5,9v35.2H4.1V9H134.5 M135.5,8H3.1v37.2h132.4V8L135.5,8z"></path> </g> <g> <path class="st0" d="M41.7,37.7c-2.5,2.5-6.3,3.6-10.3,3.6c-10.7,0-17.2-6.6-17.2-14.7c0-10.8,9.6-15.2,17.8-15.2 c9.2,0,15.1,4,16.7,10.7H38c-0.4-2.1-2.7-3.6-5.3-3.6c-7.6,0-7.4,6.3-7.4,8.3c0,2.7,1.4,7.4,8.2,7.4c2.6,0,5.2-1.1,5.7-3.2h-4.9V25 h14.8v15.7h-7L41.7,37.7z"></path> <path class="st0" d="M79.1,37.7c-2.5,2.5-6.3,3.6-10.3,3.6c-10.7,0-17.2-6.6-17.2-14.7c0-10.8,9.6-15.2,17.8-15.2 c9.2,0,15.1,4,16.7,10.7H75.4c-0.4-2.1-2.7-3.6-5.3-3.6c-7.6,0-7.4,6.3-7.4,8.3c0,2.7,1.4,7.4,8.2,7.4c2.6,0,5.2-1.1,5.7-3.2h-4.9 V25h14.8v15.7h-7L79.1,37.7z"></path> <path class="st0" d="M90.2,12.1h21.2c6.3,0,11.8,2.8,11.8,8.2c0,2.9-1.7,6.1-5.4,7.1c3.1,0.9,4.9,3.6,5.3,7.1 c0.2,1.4,0.2,4.8,1.2,6.1h-11.3c-0.6-1.5-0.7-2.9-0.9-4.4c-0.3-2.8-0.6-5.6-5-5.6h-5.9v10H90.1L90.2,12.1L90.2,12.1z M101.2,24.5 h5.8c2.1,0,4.9-0.2,4.9-2.8c0-1.8-1.3-2.8-5.5-2.8h-5.2L101.2,24.5L101.2,24.5z"></path> </g> <g> <polygon class="st0" points="65.7,65.9 70.7,65.9 68.3,58.3 "></polygon> <path class="st0" d="M3.1,44.5v37.2h132.4V44.5H3.1z M31.4,73.2h-2.6l-0.4-2.4c-0.7,0.9-1.5,1.6-2.1,1.9c-1.1,0.7-2.4,1-3.9,1 c-2.6,0-4.6-0.9-6.3-2.6c-1.7-1.7-2.6-4.2-2.6-7.3c0-3.1,0.8-5.6,2.6-7.4c1.7-1.9,4-2.8,6.8-2.8c2.5,0,4.4,0.7,5.9,1.8 c1.5,1.2,2.3,2.8,2.6,4.6h-3.9v-0.1c-0.3-1.3-1.1-2.2-2.2-2.7c-0.7-0.2-1.4-0.4-2.2-0.4c-1.6,0-2.8,0.6-3.8,1.7 c-1,1.2-1.5,2.9-1.5,5.3c0,2.4,0.6,4.1,1.7,5c1.1,1,2.3,1.5,3.6,1.5c1.3,0,2.5-0.4,3.3-1.2c0.8-0.7,1.4-1.8,1.6-3.1h-4.5v-3.2h8 V73.2z M54.6,73.2H41V53.9H45v15.8h9.6V73.2z M73,73.2l-1.2-4h-7.1l-1.3,4h-4.2L66,53.9h4.6l6.8,19.3H73z M98.5,71.8 c-1.3,1.2-3.3,1.7-5.8,1.7c-2.6,0-4.6-0.6-6-1.7c-1.5-1.2-2.2-2.7-2.2-4.7h3.8v0.1c0.2,0.9,0.3,1.6,0.7,2c0.7,0.8,1.8,1.2,3.4,1.2 c1,0,1.7-0.1,2.4-0.3c1.2-0.4,1.7-1.2,1.7-2.2c0-0.7-0.2-1.2-0.8-1.5c-0.6-0.3-1.5-0.7-2.6-0.9l-2.1-0.5c-2.1-0.4-3.5-0.9-4.2-1.5 c-1.3-0.9-2-2.2-2-4.1c0-1.7,0.7-3.1,1.9-4.3c1.2-1.2,3.1-1.7,5.6-1.7c2.1,0,3.8,0.5,5.2,1.6c1.5,1.1,2.2,2.6,2.3,4.7h-3.9 c-0.1-1.2-0.6-2-1.6-2.5c-0.7-0.3-1.4-0.5-2.4-0.5c-1.1,0-1.9,0.2-2.6,0.7c-0.7,0.4-0.9,1-0.9,1.7c0,0.7,0.3,1.2,0.9,1.6 c0.4,0.2,1.2,0.5,2.6,0.8l3.4,0.8c1.5,0.3,2.6,0.8,3.3,1.4c1.2,0.9,1.7,2.2,1.7,3.9C100.5,69.2,99.9,70.7,98.5,71.8z M122.8,71.8 c-1.3,1.2-3.3,1.7-5.8,1.7c-2.6,0-4.6-0.6-6-1.7c-1.5-1.2-2.2-2.7-2.2-4.7h3.8v0.1c0.2,0.9,0.3,1.6,0.7,2c0.7,0.8,1.8,1.2,3.4,1.2 c1,0,1.7-0.1,2.4-0.3c1.2-0.4,1.7-1.2,1.7-2.2c0-0.7-0.2-1.2-0.8-1.5c-0.6-0.3-1.5-0.7-2.6-0.9l-2.1-0.5c-2.1-0.4-3.5-0.9-4.2-1.5 c-1.3-0.9-2-2.2-2-4.1c0-1.7,0.7-3.1,1.9-4.3c1.2-1.2,3.1-1.7,5.6-1.7c2.1,0,3.8,0.5,5.2,1.6c1.5,1.1,2.2,2.6,2.3,4.7h-3.9 c-0.1-1.2-0.6-2-1.6-2.5c-0.7-0.3-1.4-0.5-2.4-0.5c-1.1,0-1.9,0.2-2.6,0.7c-0.7,0.4-0.9,1-0.9,1.7c0,0.7,0.3,1.2,0.9,1.6 c0.4,0.2,1.2,0.5,2.6,0.8l3.4,0.8c1.5,0.3,2.6,0.8,3.3,1.4c1.2,0.9,1.7,2.2,1.7,3.9C124.9,69.2,124.2,70.7,122.8,71.8z"></path> </g> </svg> 