<?xml version="1.0" encoding="UTF-8"?> <!-- Generator: Adobe Illustrator 23.0.4, SVG Export Plug-In . SVG Version: 6.00 Build 0) --> <svg xmlns="http://www.w3.org/2000/svg" xmlns:xlink="http://www.w3.org/1999/xlink" id="Layer_1" x="0px" y="0px" viewBox="0 0 512 126" style="enable-background:new 0 0 512 126;" xml:space="preserve"> <style type="text/css"> .st0{fill:#FFFFFF;} </style> <g> <path class="st0" d="M473.8,79l-0.1-0.1l-0.2-0.5l0.1-0.1c4.9-10.1,10.5-15.8,15.3-15.8h0.1c5.5,0,9.3,5,9.2,12 c0,4.7-2.1,7.4-3.8,8.8c-2,1.6-4.6,2.6-7.2,2.6C480.8,85.8,476.4,82.1,473.8,79L473.8,79z M472.5,117c-0.8,1-1.9,1.6-3.2,1.6 c-1.6,0-2.8-0.6-3.6-1.6c-2.3-3-1.6-10.1,2.1-22.9c0.4-1.5,0.9-3.1,1.4-4.6l0.4-1.3l0.4,1.3C474.2,104.3,475.1,113.5,472.5,117 L472.5,117z M315.2,48.7c0.1-3.2,0.4-6.3,0.8-9.3c2.5-19,7.7-32.2,12.6-32.2h0c2.4,0,3.5,1.8,3.5,5.3c-0.1,8.6-5.5,20.8-16.1,36.5 l-0.8,1.2L315.2,48.7L315.2,48.7z M487.8,92l0.2,0c10.4,0,17.6-7.2,17.7-17.4c0-5.1-1.4-9.7-4.1-13.1c-2.9-3.6-6.9-5.5-11.6-5.5 h-0.1c-6.4,0-12.3,4.8-18.1,14.8l-0.5,0.8l-0.3-0.9c-1.5-4.3-2.8-7.8-3.5-9.9c-0.5-1.5-0.8-2.1-0.8-2.4c-0.3-1.1-1.2-1.7-2.4-1.7 c-0.7,0-1.5,0.3-2.3,0.7c-0.7,0.5-1.2,1-1.3,1.8l0,0.1C454.8,77.4,450,86.2,446,86.2c-0.6,0-1.1-0.2-1.4-0.6 c-1.1-1.2-0.8-4-0.4-7.8c0.3-2.8,0.6-6.1,0.4-9.5c-0.2-6.6-3.8-10.5-9.6-10.5c-7.3,0-12.1,7.8-14.3,12.5l-0.7,1.4l-0.1-1.5 c-0.5-5.8-2.5-12.6-8.6-12.7c-7.1,0-12.5,8.4-15.8,15.4l-0.9,1.9l0.1-2.1c0.4-9.3,0.7-14.9,1-16.4c0.2-1.5,0.1-2.6-0.4-3.2 c-0.5-0.6-1.4-0.8-2.7-0.7c-2.3,0.1-3.4,1.5-5.2,6.2c-2.9,7.6-10.2,25.4-16.1,25.4c-1.2,0-2.1-0.4-2.8-1.2 c-2.5-2.8-1.5-10.4-0.1-20.9l0.1-0.8c0.6-5-0.5-6-3.2-6.5c-0.3-0.1-0.6-0.1-0.8-0.1c-2.2,0-3.2,2.1-5.2,7.8 c-3.6,10.2-8.2,21-13.6,21c-0.2,0-0.4,0-0.6,0c-2.9-0.5-2.8-4.7-2.7-10.1c0-2.9,0.1-6.2-0.4-9.2c-0.8-5.3-4-8.7-8.2-8.7 c-8.5,0-14.2,10.9-16.9,17.4l-0.6,1.5l-0.2-1.6c-0.4-2.8-0.8-7.3-1-12.6l0-0.2l0.1-0.1c15.9-20,23.1-34.5,23.2-46.9 c0.1-7.9-3.6-12.7-9.8-12.7c-4.5,0-15.3,3.8-19,38.6c-0.7,6.5-1.1,13.1-1.1,19.7l0,0.1l-0.1,0.1c-7.3,10.5-22.8,28.7-38,28.7 c-13.8,0-24.7-11.1-24.7-30.8c0-26.3,18.6-42.5,32.7-42.5l0.1,0c3,0,5.7,0.9,7.6,2.5c2,1.6,3,4,3,6.7c0,3.6-1.2,5.5-2.4,7.3 c-0.3,0.5-0.6,0.9-0.9,1.4c-0.3,0.5-0.5,1.2-0.2,1.8c0.4,0.6,1.3,1,2.5,1c3.3,0,8.4-4.8,8.4-12.1c0.1-7.6-6.4-15.5-17.8-15.5 c-17.3,0-40.7,19-40.7,49.9c0,21.8,13.7,36.9,32.2,36.9c13.2,0,26.2-9.4,37.7-25.1l0.7-1l0.1,1.2c0.2,5.8,0.7,10.3,1,13.6 c0.2,2.1,0.3,3.7,0.3,4.5c0,1.9,0.3,3.2,0.9,3.9c0.6,0.8,1.7,1.2,3.2,1.2c2.6,0,3.1-1.8,4.1-6.1l0.3-1.2c1.3-5.3,6-22.5,13.1-22.5 c1.2,0,2,0.4,2.7,1c1.6,1.7,1.4,5.1,1.2,9c-0.1,2.5-0.3,5,0,7.5c0.7,6.7,3.5,9.9,8.8,10c5.4,0,11-5.8,14-11.2l0.6-1l0.2,1.1 c0.6,2.9,3,12.4,10.7,12.4c7,0,13-7.3,19.5-22.5l0.9-2l-0.1,2.2c-0.1,5.7-0.5,12.7-0.5,18.1c0,4.2,0.4,5.8,2.4,5.8 c0.1,0,0.3,0,0.4,0c1.9,0,3.1-1.1,3.7-3.3c4.9-17.2,9.2-25.2,13.4-25.2c4.1,0,4.5,7.6,4.9,21l0,0.9c0.1,4.7,0.3,6.7,3.2,6.8 c2.2,0,2.8-1.7,3.9-6c0.2-0.8,0.5-1.7,0.7-2.7c4-13.8,7.3-19.5,11.4-19.5c3.5,0,3.7,3.7,3.8,4.8c0.1,2.6-0.1,5.2-0.4,7.8 c-0.2,2.4-0.5,4.9-0.4,7.2c0.2,5.4,3.2,8.4,8.3,8.4c6.7,0,12.7-7.8,18-23.3l0.4-1.1l0.4,1.1c1,2.4,2.2,5.7,3.4,9.6l0,0.1l-0.1,0.1 c-5.1,11.4-8.7,24.1-8.8,30.8c-0.1,8.9,4,14.7,10.3,14.8h0.1c3.4,0,11.4-1.4,11.6-14.1c0.1-5.2-1.2-12.6-3.7-22l-0.3-1.1l0.9,0.6 C480.6,90.9,484.2,92,487.8,92L487.8,92z"></path> <path class="st0" d="M150.5,65.8c-2.3,9.1-6.6,20-14.4,20.6c-0.2,0-0.4,0-0.6,0c-3.2,0-5-2.1-5.4-6.3c-0.4-5.2,1.8-11.3,5.7-15.6 c2.5-2.7,5.3-4.2,7.9-4.2h0.1c3.3,0,5.6,2.7,6.7,5.1l0.1,0.1L150.5,65.8L150.5,65.8z M221.9,15.1l0.1,0c0.7,0,1.4,0.4,1.9,1.1 c2.6,3.5,2.6,16.1-1.8,30.4c-2.5,8.2-5.9,16-9.8,22.4l-0.6,1l-0.2-1.2c-0.5-3.5-0.7-7.1-0.8-10.2C209.7,37,216.2,15.4,221.9,15.1 L221.9,15.1z M162.6,90.4c7.5-0.6,13.5-10.8,15.7-15.2l0.6-1.1l0.2,1.2c1.1,6.2,4.4,16.5,14.9,16.6h0.1c4.5,0,9.7-2.8,14.9-8 l0.4-0.4l0.3,0.5c3.5,5.8,8.2,9,13.2,8.7c7.4-0.4,11.8-5.6,12.2-9.2c0.1-0.9-0.1-1.8-0.7-2.4c-0.7-0.7-1.6-0.8-2.3-0.1l-0.3,0.3 c-1.7,1.6-4.9,4.7-8.4,4.9c-4.3,0.2-7.4-2.3-9.4-7.6l-0.1-0.2l0.1-0.2c11.7-15.3,19.9-38.7,19.1-54.3c-0.4-7.2-2.5-15.9-10.4-15.9 c-0.2,0-0.4,0-0.6,0c-3,0.2-5.8,1.6-8.2,4.3c-7.3,8.2-11.2,28.4-9.8,51.5c0.3,4.8,1.1,9.3,2.5,13.3l0.1,0.2l-0.2,0.2 c-4.3,5.1-8.6,7.9-12.1,7.9c-8.3,0-8-13.9-7.3-25.4c0.1-2.5,0.4-4.1-0.4-5c-0.5-0.6-1.4-1-2.7-1l-0.2,0c-2.9,0-3.6,0.6-5.1,5 c-3.1,9.1-9.3,24.3-15.5,24.3c-1.7,0-3-0.6-3.9-1.8c-3-3.9-0.7-13.5,1.1-21.2c0.3-1.4,0.6-2.7,0.9-4c0.4-1.8,0.3-3.2-0.4-4 c-0.6-0.8-1.9-1.1-3.7-1c-2.7,0.2-4.4,1.3-5.2,6.4l-0.2,1.1l-0.6-0.7c-1.2-1.7-3.4-3.8-7.6-3.8c-0.4,0-0.8,0-1.1,0 c-4.5,0.4-9.6,3.5-13.4,8.2c-4.4,5.5-6.5,12.4-5.9,19.4c0,0.4,0.1,0.7,0.1,1.1l0,0.2l-0.1,0.2c-2.6,2.8-5.3,4.3-7.9,4.3 c-4.1,0-6.4-3.1-6.4-8.1c0-8.5,5.8-34.1,5.8-43.4c0-9.9-4.4-15.2-12-15.3l-0.1,0c-11.1,0-19.8,12.6-28.1,38.7 c-0.8,2.4-1.6,5.1-2.3,7.5L71,71.1l0.3-4.1c0.8-9.1,1.3-17.9,1.6-26.2c0.4-12.6-1.3-20.7-5.2-24.7c-2.1-2.2-4.9-3.3-8.5-3.3h-0.1 c-13.6,0-20.2,23-24.9,39.2c-1.4,4.9-4.3,16-6.2,23.5l1.1-1.8c0.8-9.5,3.3-33.3,3.1-46.3c-0.2-13.9-4.8-20.1-15-20.2h-0.1 c-5.4,0-9.2,2.7-11.4,5c-3.5,3.6-5.8,9-5.6,13.6c0.1,2.8,1.8,5.3,3.1,5.3c0.8,0,1.3-1.1,1.5-1.8c3.2-10.4,7.2-15.5,12.5-15.5 c2.2,0,3.8,0.7,5,2c4.1,4.4,3.3,16.2,2,37.7c-0.4,6.9-0.9,14.8-1.3,23.7c-0.1,1.5-0.2,3-0.3,4.4c-0.4,6.2-0.7,11.1,1.6,11.5 c3.1,0.5,5.1-0.8,6.1-3.8c1.5-4.5,4.9-16.8,11.5-39.2C48,28.5,52.8,20.7,58.9,20.7c7,0,7.6,12.1,6.3,37.5 c-0.3,5.4-0.6,11.5-0.9,18.2c0,0.9-0.1,1.8-0.1,2.7c-0.3,5.5-0.5,9.9,1.1,11.5c0.5,0.5,1.2,0.8,2,0.8c3,0,4-2.7,5.5-7.1 c0.3-0.8,0.6-1.6,0.9-2.5C84,53,91.7,28,102.1,28c3.1,0,5.5,2.5,5.5,7.5c0,11.4-5.6,33.3-5.6,44.5c0,4,1.1,7.6,3.3,10.1 c2.2,2.6,5.3,4,9,4h0.1c3.5,0,7.1-1.7,10.7-5l0.3-0.3l0.3,0.4c2.4,3.2,6.3,5,10.5,4.7c6.4-0.5,11.8-6.2,13.9-11.6l0.4-1.1l0.4,1.1 C152.5,86.1,155.7,90.9,162.6,90.4L162.6,90.4z"></path> <path class="st0" d="M186.6,32.6c-2.9,0-5.2,2.3-5.2,5.1c0,2.8,2.3,5.1,5.1,5.1l0,0.4v-0.4c2.8,0,5.2-2.3,5.2-5.1 C191.8,34.9,189.5,32.6,186.6,32.6"></path> <path class="st0" d="M367.5,32.6c-2.9,0-5.2,2.3-5.2,5.1c0,2.8,2.3,5.1,5.1,5.1l0,0.4v-0.4c2.8,0,5.2-2.3,5.2-5.1 C372.7,34.9,370.4,32.6,367.5,32.6"></path> <path class="st0" d="M508.4,92.9c-1.7,0-3-1.3-3-3s1.3-3,3-3c1.7,0,3,1.3,3,3S510.1,92.9,508.4,92.9L508.4,92.9z M508.4,86.3 c-1.9,0-3.5,1.6-3.5,3.5c0,1.9,1.6,3.5,3.5,3.5c1.9,0,3.5-1.6,3.5-3.5C511.9,87.9,510.3,86.3,508.4,86.3L508.4,86.3z"></path> <path class="st0" d="M508.3,89.6h-0.7v-1.4h0.9c0.4,0,0.9,0.2,0.9,0.7C509.4,89.6,508.8,89.6,508.3,89.6L508.3,89.6z M510,88.9 c0-0.7-0.4-1.1-1.3-1.1h-1.6v4.1h0.5v-1.8h0.7l1.2,1.8h0.6l-1.2-1.8C509.5,90,510,89.7,510,88.9L510,88.9z"></path> </g> </svg> 