<?xml version="1.0" encoding="utf-8"?>
<!-- Generator: Adobe Illustrator 23.0.4, SVG Export Plug-In . SVG Version: 6.00 Build 0)  -->
<svg version="1.1" id="Layer_1" xmlns="http://www.w3.org/2000/svg" xmlns:xlink="http://www.w3.org/1999/xlink" x="0px" y="0px"
	 viewBox="0 0 240 65" style="enable-background:new 0 0 240 65;" xml:space="preserve">
<style type="text/css">
	.st0{fill:#FFFFFF;}
</style>
<g>
	<g>
		<path class="st0" d="M2.7,41.2V27.1c0-1.8-0.1-3.5-0.3-5c-0.2-1.5-0.6-3.1-1.1-5h4.1h4.1v6.5l4.3-5.3l1.5-0.9
			c1.5-0.8,3.1-1.1,5-1.1c2.7,0,4.8,0.9,6.2,2.5c1.1,1.2,1.7,3,1.9,5.1l5.1-5.6l1.4-0.8c1.5-0.8,3-1.2,4.7-1.2c2.6,0,4.7,0.8,6,2.5
			s2.1,4.1,2.1,7.2v15.1c0,2.9,0.1,5.1,0.2,6.5s0.5,2.6,0.9,3.5h-4.7h-4.7c0.5-1,0.9-2.3,1.1-3.8s0.3-3.5,0.3-6.2v-13
			c0-1.8-0.4-3.2-1.3-4.1s-2.2-1.4-3.9-1.4c-1.6,0-3.4,0.5-5.4,1.7l-1.6,1v15.8c0,2.7,0.1,4.7,0.3,6.2s0.6,2.7,1.1,3.8h-4.9h-4.9
			c0.5-1,0.9-2.3,1.1-3.8s0.3-3.5,0.3-6.2v-13c0-1.9-0.4-3.2-1.3-4.1s-2.2-1.4-3.9-1.4c-1.5,0-3.4,0.6-5.5,1.7l-1.5,0.8v16
			c0,2.7,0.1,4.7,0.3,6.2s0.6,2.7,1.1,3.8H6.1H1.2c0.5-1,0.9-2.3,1.1-3.8C2.6,46,2.7,43.9,2.7,41.2z"/>
		<path class="st0" d="M62.6,27.1v12.7c0,2,0.5,3.4,1.4,4.4c0.9,1,2.3,1.4,4.1,1.4c1.5,0,3.3-0.4,5.3-1.2l1.1-0.4V27.1
			c0-1.9-0.1-3.5-0.3-5c-0.2-1.5-0.6-3.1-1.1-5H78h4.9c-0.5,1.1-0.9,2.4-1.1,3.8c-0.2,1.5-0.3,3.5-0.3,6.1v14.1
			c0,2.7,0.1,4.7,0.3,6.2s0.6,2.7,1.1,3.8h-3.9h-4v-5.8l-5.4,5.8c-1.9,0.5-3.4,0.8-4.4,0.8c-3.1,0-5.4-0.8-7-2.4
			c-1.6-1.6-2.4-4-2.4-7.1V27.1c0-1.8-0.1-3.5-0.3-4.9c-0.2-1.5-0.6-3.1-1.1-5h4.9h4.9c-0.5,1.1-0.9,2.4-1.2,3.8
			C62.7,22.4,62.6,24.5,62.6,27.1z"/>
		<path class="st0" d="M106.4,24.4c-1-1.1-1.9-2-2.9-2.5c-1-0.5-2.1-0.8-3.3-0.8c-1.4,0-2.5,0.4-3.4,1.1c-0.9,0.7-1.3,1.6-1.3,2.7
			c0,1,0.3,2,0.9,2.8c0.6,0.8,1.7,1.9,3.3,3.2c2.8,2.1,4.7,4,5.9,5.7c1.1,1.6,1.7,3.3,1.7,5.2c0,2.9-1,5.4-3.1,7.3S99.5,52,96.4,52
			c-1.7,0-3.1-0.1-4.3-0.3c-1.2-0.2-2.7-0.6-4.4-1.1v-8.1c1.3,1.6,2.6,2.8,4,3.5s2.7,1.2,4.1,1.2c1.3,0,2.4-0.4,3.3-1.2
			c0.9-0.8,1.3-1.8,1.3-3c0-1-0.3-1.9-1.1-2.8c-0.7-0.9-2-2.1-4-3.6c-2.5-1.9-4.3-3.7-5.3-5.3c-1-1.5-1.5-3.3-1.5-5.2
			c0-2.8,1.1-5.1,3.3-7c2.2-1.9,5-2.8,8.4-2.8c1.2,0,2.3,0.1,3.2,0.3c0.9,0.2,1.9,0.6,3.1,1.1L106.4,24.4L106.4,24.4z"/>
		<path class="st0" d="M112.9,14.3c0-2.2-0.1-4.1-0.3-5.5s-0.6-2.9-1.1-4.4l4.9-1l4.9-1c-0.5,1.1-0.9,2.3-1.2,3.6
			c-0.2,1.3-0.3,3.1-0.3,5.4v11.5l5-5.8c1.6-0.5,3.1-0.7,4.5-0.7c3.8,0,6.8,1.3,8.9,3.8s3.1,6.1,3.1,10.8c0,6.2-1.9,11.2-5.6,14.8
			c-3.7,3.7-8.7,5.5-15.1,5.5h-0.8h-8.2c0.5-1,0.9-2.3,1.1-3.8s0.3-3.5,0.3-6.2C112.9,41.3,112.9,14.3,112.9,14.3z M124.2,46.5
			c3.3,0,5.8-1.1,7.6-3.3c1.8-2.2,2.7-5.3,2.7-9.4c0-3.4-0.7-6.1-2.2-8.1s-3.4-3-6-3c-1.4,0-3,0.3-4.6,0.9l-1.9,0.9V46
			C121,46.3,122.5,46.5,124.2,46.5z"/>
		<path class="st0" d="M153.8,27.1v12.7c0,2,0.4,3.4,1.4,4.4s2.3,1.4,4.2,1.4c1.5,0,3.3-0.4,5.3-1.2l1.1-0.4V27.1
			c0-1.9-0.1-3.5-0.3-5s-0.6-3.1-1.1-5h4.9h4.9c-0.5,1.1-0.9,2.4-1.1,3.8c-0.2,1.5-0.3,3.5-0.3,6.1v14.1c0,2.7,0.1,4.7,0.3,6.2
			s0.6,2.7,1.1,3.8h-3.9h-4v-5.8l-5.4,5.8c-1.9,0.5-3.4,0.8-4.4,0.8c-3.1,0-5.4-0.8-7-2.4c-1.6-1.6-2.4-4-2.4-7.1V27.1
			c0-1.8-0.1-3.5-0.3-4.9s-0.6-3.1-1.1-5h4.9h4.9c-0.5,1.1-0.9,2.4-1.2,3.8S153.8,24.5,153.8,27.1z"/>
		<path class="st0" d="M182.1,41.2V27.1c0-1.8-0.1-3.5-0.3-5c-0.2-1.5-0.6-3.1-1.1-5h4.1h4.1v6l5.3-6c1.6-0.6,3.1-0.9,4.5-0.9
			c1.2,0,2.2,0.2,3,0.7l-1.4,7.3l-0.3-0.2c-1.3-0.9-2.8-1.4-4.6-1.4c-1.3,0-3,0.5-5.1,1.4l-1.5,0.7v16.3c0,2.7,0.1,4.7,0.3,6.2
			s0.6,2.7,1.1,3.8h-4.9h-4.9c0.5-1,0.9-2.3,1.1-3.8S182.1,43.9,182.1,41.2z"/>
	</g>
	<g>
		<g>
			<path class="st0" d="M215,62h-9c2.3-1.9,4.3-3.9,6-6.1c1.7-2.2,3.4-5,5-8.3l0.9-1.7v0l-8.1-18.7c-0.9-2.2-1.9-4-2.7-5.5
				c-0.9-1.5-2-3-3.3-4.5h4.7h4.7c0.1,0.7,0.4,1.6,0.7,2.7s0.9,2.5,1.8,4.5l5.9,14.7l0,0l4.9-14.7c0.5-1.5,0.8-2.8,1-3.8
				s0.1-2.2-0.1-3.4h4.9h4.9c-1,1.3-1.8,2.7-2.6,4.1s-1.6,3.4-2.5,5.8l-5.6,15.1c-2.1,5.7-4.1,10-5.8,13C218.9,58.1,217,60.4,215,62
				z"/>
		</g>
	</g>
</g>
</svg>
