<?xml version="1.0" encoding="UTF-8"?> <!-- Generator: Adobe Illustrator 23.0.4, SVG Export Plug-In . SVG Version: 6.00 Build 0) --> <svg xmlns="http://www.w3.org/2000/svg" xmlns:xlink="http://www.w3.org/1999/xlink" id="Layer_1" x="0px" y="0px" viewBox="0 0 2500 1880.6" style="enable-background:new 0 0 2500 1880.6;" xml:space="preserve"> <style type="text/css"> .st0{fill-rule:evenodd;clip-rule:evenodd;fill:none;stroke:#FFFFFF;stroke-width:15;stroke-miterlimit:2.613;} .st1{fill-rule:evenodd;clip-rule:evenodd;fill:#FFFFFF;} .st2{fill:#FFFFFF;} </style> <g> <path class="st0" d="M838.1,135.3h825v779.6h-825V135.3z"></path> <path class="st0" d="M838.1,1462.7h825v292.8h-825V1462.7z"></path> <path class="st1" d="M1229.8,301.9h40.9c-1.7-1.2-3.2-2.7-4.8-4.4c-7.1-7.2-5.9-15.3-3-18.3c2.9-2.9,11,0.5,18.1,7.7 c1.8,1.8,3.3,3.6,4.6,5.4v-50.7c-1.3,1.8-2.8,3.5-4.4,5.1c-7.1,7.2-15.2,10.6-18.1,7.7c-2.9-2.9,0.5-11.1,7.6-18.3 c1.8-1.8,3.4-3.3,5.1-4.6h-49.9c1.6,1.2,3.3,2.7,4.9,4.3c7.1,7.1,10.5,15.3,7.6,18.3c-2.9,2.9-11-0.5-18.1-7.7 c-1.7-1.6-3.2-3.4-4.6-5.3v50.5c1.2-1.7,2.7-3.3,4.3-5c7.1-7.2,15.2-10.6,18.1-7.7c2.9,2.9,4.1,11.1-3,18.3 C1233.5,298.9,1231.7,300.5,1229.8,301.9L1229.8,301.9z M1209.1,357.3c3.9,19.3,20.8,33.9,41.1,33.9c20.3,0,37.2-14.6,41.1-33.9 H1209.1z M1291.2,340.3c-3.4-16.6-16.4-29.7-33-33v33H1291.2z M1241.6,307.4c-16.5,3.5-29.3,16.4-32.6,32.9h32.6V307.4z M1237.5,409.3c0-7,5.6-12.7,12.7-12.7c7,0,12.7,5.7,12.7,12.7c0,7-5.6,12.8-12.7,12.8C1243.1,422.1,1237.5,416.4,1237.5,409.3 C1237.5,409.3,1237.5,409.3,1237.5,409.3z M1237.5,441.4c0-7,5.6-12.7,12.7-12.7c7,0,12.7,5.7,12.7,12.7c0,7-5.6,12.7-12.6,12.8 c0,0,0,0,0,0C1243.1,454.1,1237.5,448.4,1237.5,441.4C1237.5,441.4,1237.5,441.4,1237.5,441.4z M1237.5,473.5 c0-7,5.6-12.7,12.6-12.8c0,0,0,0,0,0c7,0,12.7,5.7,12.7,12.8c0,7-5.7,12.7-12.7,12.7C1243.1,486.2,1237.5,480.5,1237.5,473.5z M1237.5,505.5c0-7,5.6-12.7,12.6-12.8c0,0,0,0,0,0c7,0,12.7,5.7,12.7,12.8c0,7-5.7,12.7-12.7,12.7l0,0 C1243.1,518.2,1237.5,512.5,1237.5,505.5C1237.5,505.5,1237.5,505.5,1237.5,505.5z M1236.2,576.8c0-7.8,6.2-14,14-14s14,6.3,14,14 c0,7.8-6.3,14.1-14,14.1C1242.4,590.9,1236.2,584.6,1236.2,576.8z M1460.4,617.6c4.9,1.7,11.1-3.8,13.9-12.2 c2.8-8.4,1.1-16.5-3.8-18.2c-4.9-1.6-11.2,3.8-14,12.2C1453.8,607.8,1455.5,615.9,1460.4,617.6z M1039.9,617.6 c-4.9,1.7-11.1-3.8-14-12.2c-2.8-8.4-1.1-16.5,3.8-18.2c4.9-1.6,11.2,3.8,13.9,12.2C1046.5,607.8,1044.8,615.9,1039.9,617.6z M1297.1,376.8c0-10.3,8.3-18.7,18.6-18.7c10.2,0,18.5,8.4,18.5,18.7s-8.3,18.7-18.5,18.7C1305.4,395.5,1297.1,387.1,1297.1,376.8 C1297.1,376.9,1297.1,376.8,1297.1,376.8z M1340.5,357.9c0-10.3,8.3-18.7,18.5-18.7s18.6,8.4,18.6,18.7c0,10.4-8.3,18.7-18.6,18.7 S1340.5,368.3,1340.5,357.9z M1384.9,341.9c0-10.4,8.3-18.7,18.5-18.7c10.2,0,18.5,8.4,18.5,18.7c0,10.3-8.3,18.7-18.5,18.7 C1393.2,360.6,1384.9,352.2,1384.9,341.9C1384.9,341.9,1384.9,341.9,1384.9,341.9z M1431.8,340.3c0-10.3,8.3-18.7,18.5-18.7 s18.5,8.4,18.5,18.7c0,10.3-8.3,18.7-18.5,18.7S1431.8,350.6,1431.8,340.3z M1474.7,358.8c0-10.3,8.3-18.7,18.5-18.7 c10.2,0,18.5,8.4,18.5,18.7s-8.3,18.7-18.5,18.7C1483,377.5,1474.7,369.1,1474.7,358.8z M1504.8,395.8c0-10.4,8.3-18.7,18.5-18.7 s18.6,8.4,18.6,18.7c0,10.3-8.3,18.7-18.6,18.7S1504.8,406.1,1504.8,395.8z M1515.7,441.4c0-10.3,8.3-18.7,18.5-18.7 c10.3,0,18.5,8.4,18.5,18.7c0,10.3-8.3,18.7-18.5,18.7C1523.9,460.1,1515.6,451.7,1515.7,441.4 C1515.7,441.4,1515.7,441.4,1515.7,441.4z M1513.2,488.3c0-10.3,8.3-18.7,18.5-18.7s18.6,8.4,18.6,18.7s-8.3,18.7-18.6,18.7 S1513.2,498.6,1513.2,488.3z M1501,533.2c0-10.3,8.3-18.7,18.5-18.7c10.2,0,18.5,8.4,18.5,18.7c0,10.3-8.3,18.7-18.5,18.7 C1509.3,551.9,1501,543.5,1501,533.2z M1166.2,376.8c0-10.3,8.3-18.7,18.5-18.7s18.5,8.4,18.5,18.7s-8.3,18.7-18.5,18.7 S1166.2,387.2,1166.2,376.8z M1122.8,357.9c0-10.3,8.3-18.7,18.6-18.7c10.2,0,18.5,8.4,18.5,18.7c0,10.4-8.3,18.7-18.5,18.7 C1131.1,376.6,1122.8,368.2,1122.8,357.9C1122.8,357.9,1122.8,357.9,1122.8,357.9z M1078.4,341.9c0-10.4,8.3-18.7,18.5-18.7 c10.3,0,18.6,8.4,18.6,18.7c0,10.3-8.3,18.7-18.6,18.7C1086.6,360.6,1078.3,352.2,1078.4,341.9 C1078.4,341.9,1078.4,341.9,1078.4,341.9z M1031.5,340.3c0-10.3,8.3-18.7,18.5-18.7s18.5,8.4,18.5,18.7c0,10.3-8.3,18.7-18.5,18.7 C1039.7,359,1031.5,350.6,1031.5,340.3C1031.5,340.3,1031.5,340.3,1031.5,340.3z M988.6,358.8c0-10.3,8.3-18.7,18.5-18.7 s18.5,8.4,18.5,18.7s-8.3,18.7-18.5,18.7C996.8,377.4,988.6,369.1,988.6,358.8C988.6,358.8,988.6,358.8,988.6,358.8z M958.6,395.8 c0-10.4,8.3-18.7,18.5-18.7c10.2,0,18.5,8.4,18.5,18.7c0,10.3-8.3,18.7-18.5,18.7C966.9,414.5,958.6,406.1,958.6,395.8z M947.6,441.4c0-10.3,8.3-18.7,18.5-18.7c10.3,0,18.6,8.4,18.6,18.7c0,10.3-8.3,18.7-18.6,18.7 C955.8,460.1,947.6,451.7,947.6,441.4C947.6,441.5,947.6,441.4,947.6,441.4z M950.1,488.3c0-10.3,8.3-18.7,18.6-18.7 c10.2,0,18.5,8.4,18.5,18.7s-8.3,18.7-18.5,18.7C958.3,507,950,498.6,950.1,488.3C950.1,488.3,950.1,488.3,950.1,488.3z M962.3,533.2c0-10.3,8.3-18.7,18.5-18.7c10.3,0,18.6,8.4,18.6,18.7c0,10.3-8.3,18.7-18.6,18.7 C970.5,551.8,962.2,543.5,962.3,533.2z"></path> <path class="st1" d="M1088.4,548.7c-5.5,3.8-11.1,25.2,8.9,41.5c3.9-9,8.4-9.9,12.5-9c4.2,0.9,7.4,3.1,9.7,11.6l28-2.2 c0.4-7.4,3.7-12.2,10.3-14c6-1.1,11.3,1.8,15.8,8.7c4.1-12.2,4.8-27.8,0.6-36.7l28.7,0v60.6c13.6-23.4,33-26.1,34.8-6.5 c1.6,17.1-19.4,36.1-39.3,36.1c-19.9,0-33.7-8.5-47.7-30.5l-28,2.2c-5,16.8-31.3,33.4-55.7,24.7c-11.8-4.2-20.1-10.6-17.3-18.1 c3.3-8.7,14.2-1.6,22.4,1.5c0,0-11.6-38.8-17.3-55.4c-1.5,4.5-8.4,21.1-17.3,16c-4.9-2.7-1.7-14.2,3.8-30.6L1088.4,548.7 L1088.4,548.7z M1109.4,548.7c1.7,4.2,3.7,8.5,6.1,12.9c-5.7-7-10.5-10.9-14.5-12.9L1109.4,548.7L1109.4,548.7z M1150.5,548.7 c-3.2,3.4-5.7,7.2-7.6,11.4c0.9-4.1,1.6-7.8,2.2-11.4L1150.5,548.7z M1231.3,548.7c3.2,5.6,4.1,10.4,1.6,12.7 c-3.9,3.7-14.7-0.6-24.2-9.6c-1-1-2-2-3-3L1231.3,548.7L1231.3,548.7L1231.3,548.7z M1294.6,548.7c-1,1.1-1.9,2.1-3,3 c-9.5,9-20.3,13.3-24.2,9.6c-2.4-2.3-1.6-7.1,1.6-12.7L1294.6,548.7L1294.6,548.7z M1326.1,548.7c-4.2,8.9-3.4,24.5,0.7,36.7 c4.5-6.9,9.8-9.8,15.8-8.7c6.6,1.8,9.8,6.6,10.3,14l28,2.2c2.2-8.5,5.5-10.8,9.7-11.6c4.2-0.9,8.6,0,12.5,9 c19.9-16.3,14.4-37.7,8.9-41.5h47.2c5.6,16.5,8.7,27.9,3.8,30.7c-8.9,5.1-15.8-11.4-17.3-16c-5.7,16.6-17.3,55.4-17.3,55.4 c8.2-3.1,19.1-10.2,22.4-1.5c2.8,7.5-5.5,13.9-17.3,18.1c-24.4,8.7-50.6-7.8-55.7-24.7l-28-2.2c-14,22-27.7,30.5-47.7,30.5 c-19.9,0-40.9-19-39.3-36.1c1.8-19.6,21.2-16.9,34.8,6.5v-60.6L1326.1,548.7L1326.1,548.7z M1355.3,548.7c0.6,3.6,1.3,7.3,2.1,11.4 c-1.9-4.2-4.5-8-7.6-11.4L1355.3,548.7L1355.3,548.7z M1399.3,548.7c-4,2-8.8,6-14.5,12.9c2.4-4.4,4.4-8.7,6.1-12.9L1399.3,548.7 L1399.3,548.7z"></path> <g> <polygon class="st2" points="1049.9,712.1 1084.2,712.1 1084.2,684.1 1049.9,684.1 1038,698 "></polygon> <path class="st2" d="M1031.2,746.7c0,13.6,11.6,24.6,25.9,24.6H1442c14.3,0,25.9-11,25.9-24.6c0-13.6-11.6-24.6-25.9-24.6h-384.9 C1042.8,722,1031.2,733,1031.2,746.7z"></path> <path class="st2" d="M555,1113.5c-20.1,0-39.3,8-53.4,22.3c-14.3,14.4-22.1,33.6-22.1,54c0,20.4,7.9,39.5,22.1,54 c14.1,14.3,33.3,22.4,53.4,22.3c41.7,0,75.5-34.2,75.5-76.3c0.1-20.2-7.9-39.6-22.1-54C594.2,1121.5,575.2,1113.5,555,1113.5z"></path> <path class="st2" d="M1115.4,698.1c0,8.4,13.5,15.3,30.1,15.3c16.6,0,30.1-6.8,30.1-15.3c0-8.4-13.5-15.3-30.1-15.3 C1128.9,682.8,1115.4,689.7,1115.4,698.1z"></path> <path class="st2" d="M555,1082.6c-58.5,0-106.2,48.1-106.2,107.3c-0.1,28.4,11.1,55.7,31.1,75.9c19.8,20.1,46.8,31.5,75.1,31.4 c28.2,0.1,55.3-11.2,75.1-31.4l0,0c20-20.2,31.2-47.4,31.1-75.9c0.1-28.4-11.1-55.7-31.1-75.8C610,1093.7,583.4,1082.6,555,1082.6 z M555,1288.5c-26,0-50.9-10.4-69.1-28.9c-18.5-18.7-28.6-43.4-28.6-69.8c-0.1-26.1,10.2-51.2,28.6-69.8 c18.2-18.5,43.1-29,69.1-28.9c26-0.1,50.9,10.4,69.1,28.9c18.4,18.6,28.7,43.7,28.6,69.8C652.7,1244.3,608.9,1288.5,555,1288.5z"></path> <rect x="1211.7" y="684.1" class="st2" width="75.7" height="28"></rect> <path class="st2" d="M1008.9,1192.9c0,19.6,7.6,37.9,21.2,51.8c13.5,13.8,32,21.5,51.2,21.5c40,0,72.5-32.9,72.5-73.2v-73.2h-72.5 c-19.3,0-37.7,7.7-51.2,21.4C1016.5,1155,1008.9,1173.3,1008.9,1192.9z"></path> <polygon class="st2" points="1414.9,684.1 1414.9,712.1 1449.1,712.1 1461,698 1449.1,684.1 "></polygon> <path class="st2" d="M1417.1,652.1c-22.6-0.6-43-17-52-30.3c-1.8-3-4.3-3.2-6.3,0.1c-13.7,18.7-25.9,32.4-59.3,32.4 s-45.9-21-50-27.1c-4.2,6-16.7,27.1-50.1,27.1c-33.3,0-45.6-13.7-59.3-32.4c-1.9-3.3-4.5-3.1-6.3-0.1c-8.9,13.2-29.3,29.6-52,30.3 c-22.7,0.6-35.6-13.4-35.6-13.4l3.6,35h399.2l3.6-35C1452.7,638.7,1439.8,652.7,1417.1,652.1z"></path> <path class="st2" d="M1323.5,698.1c0,8.4,13.4,15.3,30.1,15.3c16.6,0,30.1-6.8,30.1-15.3c0-8.4-13.5-15.3-30.1-15.3 C1336.9,682.8,1323.5,689.7,1323.5,698.1z"></path> <path class="st2" d="M1015.3,546.4l30-9.2c-1.4,4.1-2.7,7.9-3.9,11.5h0v0h47.1c0.2-0.1,0.3-0.2,0.5-0.3c3.2-1.5,7-2.1,12,0.3 l8.4,0c-10.7-27.2-5.9-50.2,12.9-65.4c23.3,21.7,28.1,33.4,22.7,65.3l5.5,0c4-4.1,9-7.3,14.7-7c4.1,0.2,7.1,2.9,9,7h28.7v-3.4 c0.9,1.2,1.9,2.3,2.9,3.4l25.5,0c-2-3.4-4.9-7-8.5-10.4c-2.3-2.2-4.5-4.2-6.9-5.8h68.5c-2.4,1.6-4.6,3.6-6.9,5.8 c-3.6,3.4-6.5,7.1-8.5,10.4h25.5c1-1.1,2-2.3,2.9-3.4v3.4l28.6,0c1.9-4.1,4.8-6.8,9-7c5.7-0.3,10.8,2.9,14.7,7l5.5,0 c-5.4-32-0.7-43.7,22.7-65.4c18.9,15.1,23.6,38.1,12.9,65.3l8.4,0.1c5-2.5,8.9-1.9,12-0.4c0.2,0.1,0.4,0.2,0.5,0.3l47.2,0.1 c-1.2-3.6-2.6-7.5-3.9-11.5l29.9,9.2c0,0,23.2-32.1,25.4-87.7c3.3-82.5-53-96.4-77.7-96.6c-26.5-0.3-38.7,6.6-63.1,16.3 c-23.1,9.1-39.6,22.5-82.1,28.5l0.1,24.9c47.2-2,91.7-35,135.9-35.3c50.3-0.3,57.2,50.5,56.6,66.1c-0.6,15.6-1.5,32.2-11.9,54.2 c-2.1-12.7-10.1-50.9-24.7-57.5c-37.8-15.7-75.7-2.4-75.7-2.4c-43.5-13.5-80.1-13.5-80.1-13.5l0-11.5c-1.5,0.1-2.9,0.1-4.4,0.1 l-3.3-24c2.6-0.3,5.2-0.6,7.6-1l0-13.5l-17-7.1v135.9h-40.7V386.3l-17,7.1l0,13.5c2.5,0.3,5,0.7,7.6,1l-3.3,24c-1.5,0-3,0-4.4-0.1 l0,11.5c0,0-36.6,0-80.1,13.5c0,0-37.9-13.2-75.7,2.4c-13.5,6.6-22.7,44.9-24.7,57.5c-10.4-22-11.3-38.6-11.9-54.2 c-0.6-15.6,6.2-66.4,56.6-66.1c44.2,0.3,88.7,33.3,135.9,35.3l0.1-24.9c-42.5-6-58.9-19.4-82-28.5c-24.4-9.6-36.6-16.6-63.2-16.3 c-24.7,0.3-81,14.1-77.7,96.6C992.1,514.3,1015.3,546.4,1015.3,546.4z"></path> <path class="st2" d="M36.8,882.8v601.4h2426.5V882.8H36.8z M1554.9,988.6l88.7,193.5l88.7-193.5h24.4l-113.1,246.9l-113.1-246.9 H1554.9z M741.5,1067.6h22.2v124.6c0,14.1,5.5,27.7,15.4,37.7c9.8,10,23.3,15.6,37.3,15.6c28.1,0,52.8-26.4,52.8-56.5v-121.4h22.2 V1189c0,42.8-34.3,78.9-75,78.9c-19.9,0-39-8-53-22.2l0,0c-14.1-14.2-22-33.5-22-53.5V1067.6z M361.4,1312.3l-112.7-161h58.5 c33.8,0,51.8-33.5,51.8-57.8c-0.2-14.2-5.8-27.8-15.7-38c-9.5-9.6-21.7-14.5-36.1-14.5h-59.5v271.3h-22.2v-293.7h81.7 c20.3,0,38.2,7.3,51.8,21c13.9,14.1,22.2,34.2,22.2,53.8c0,33.6-25.7,80.2-74,80.2h-15.6v0l97.1,138.6H361.4z M399,1312.3 l-91.1-130.1c20.8-0.2,39.7-8.2,54.6-23.3c16.7-16.9,27.2-42,27.2-65.4c0-21.9-9.2-44.3-24.7-59.9c-15.3-15.4-35.2-23.6-57.8-23.6 h-90.2v302.3h-22.2V987.7h112.4c28.6,0,54,10.4,73.5,30.1c19.9,20.2,31.1,47.4,31.2,75.7c0,29.6-12.6,60-33.7,81.3 c-9.3,9.5-20.4,17.1-32.7,22.3v0l80.7,115.2H399z M645.8,1281.5c-23.9,24.4-56.6,38.1-90.8,38c-34.1,0.1-66.8-13.6-90.7-38 c-24.2-24.4-37.7-57.4-37.6-91.7c0-71.5,57.6-129.7,128.3-129.7c34.1-0.1,66.9,13.6,90.8,38c24.3,24.5,37.6,57.1,37.6,91.7 S670,1257,645.8,1281.5z M710.8,1067.6H733v124.6c-0.1,22.3,8.7,43.8,24.4,59.6c15.6,15.8,36.8,24.7,59,24.7 c21.3,0,41.7-8.8,57.4-24.6c7.3-7.4,13.2-16,17.5-25.4v67.7c0,41.7-33.6,75.7-75,75.7c-19.9,0-39-8-53-22.2 c-9.6-9.6-16.3-21.7-19.6-34.9h23.3c2.6,7.1,6.7,13.6,12,19c9.8,10,23.3,15.6,37.3,15.6c29.1,0,52.8-23.9,52.8-53.3v-10.5 c-15.8,9.9-34.1,15.1-52.8,15.2v0c-28.1,0.1-55-11.2-74.7-31.3c-19.9-20-31-47.2-30.9-75.4V1067.6z M922,1294.2 c0,28.5-11,55.3-30.9,75.5c-20,20.2-46.5,31.3-74.7,31.3c-28.1,0.1-55-11.2-74.7-31.3c-15.3-15.5-25.5-35.3-29.3-56.8h22.6 c3.4,15.5,11.2,29.6,22.3,40.9c15.6,15.8,36.8,24.7,59,24.7c22.2,0,43.5-8.9,59-24.7c15.7-15.8,24.5-37.3,24.5-59.6v-226.6H922 V1294.2z M1176.1,1192.9c0,52.7-42.5,95.6-94.7,95.6c-25.2,0.1-49.3-10-66.9-28c-17.9-18.1-27.7-42.1-27.7-67.6 s9.9-49.5,27.7-67.6c17.6-18,41.7-28.1,66.9-28h94.7V1192.9z M1206.7,1312.9h-22.2v-224.2h-103.1c-56.9,0-103.1,46.7-103.1,104.2 c-0.1,27.6,10.8,54.1,30.2,73.7c19.2,19.5,45.5,30.5,72.9,30.5c27.4,0.1,53.7-10.9,73-30.5c9.2-9.3,16.6-20.3,21.7-32.3v78.6 h-22.2v-16.8c-21.1,15.2-46.5,23.4-72.5,23.4c-33.3,0.1-65.3-13.3-88.6-37.1c-23.6-23.8-36.8-56-36.7-89.5 c0-69.8,56.2-126.6,125.3-126.6v0h125.3V1312.9z M1271.2,1312.9h-22.2V988.5h22.2V1312.9z M1301.9,1312.9h-22.2V988.5h22.2V1312.9 z M1439.7,1313.4l57.1-324.8h22.6l-57.2,324.8H1439.7z M1793.7,1313.4l-42.2-239.7l-107.9,235.6l-107.9-235.6l-42.3,239.7h-22.5 l55.3-313.8l117.4,256.3h0l117.4-256.3l55.3,313.8H1793.7z M1824.9,1313.4l-57.2-324.8h22.5l57.3,324.8H1824.9z M2081,1192.9 c0,52.7-42.5,95.6-94.6,95.6c-25.2,0.1-49.3-10-66.9-28c-17.9-18.1-27.7-42.1-27.7-67.6s9.9-49.5,27.7-67.6 c17.6-18,41.8-28.1,66.9-28h94.6V1192.9z M2111.7,1312.9h-22.2v-224.2h-103.1c-56.9,0-103.1,46.7-103.1,104.2 c-0.1,27.6,10.8,54.1,30.2,73.7c19.2,19.5,45.5,30.5,72.9,30.5c27.4,0.1,53.7-10.9,72.9-30.5c9.2-9.3,16.6-20.3,21.7-32.3v78.6 h-22.2v-16.8c-21.1,15.2-46.5,23.4-72.5,23.4c-33.3,0.1-65.3-13.3-88.6-37.1c-23.6-23.8-36.8-56-36.7-89.5 c0-69.8,56.2-126.6,125.3-126.6v0h125.3V1312.9z M2178.1,1312.9H2156v-245.5h22.2V1312.9z M2208.8,1312.9h-22.2v-245.5h22.2 V1312.9z M2182.5,1040.2c-15.7,0-28.5-12.9-28.5-28.8c0-15.9,12.7-28.8,28.5-28.8c0,0,0,0,0,0c15.8,0.1,28.6,13,28.5,28.8 C2211.1,1027.3,2198.3,1040.2,2182.5,1040.2z M2278.6,1312.9h-22.2V988.5h22.2V1312.9z M2309.3,1312.9h-22.2V988.5h22.2V1312.9z"></path> <path class="st2" d="M1935.2,1141.1c-13.7,13.9-21.3,32.2-21.3,51.8s7.5,37.9,21.3,51.8c13.5,13.8,32,21.5,51.2,21.5 c40,0,72.5-32.9,72.5-73.2v-73.2h-72.5C1967.1,1119.7,1948.7,1127.4,1935.2,1141.1z"></path> <path class="st2" d="M2182.5,1002.6c-4.8,0-8.7,3.9-8.7,8.8c0,4.8,3.9,8.8,8.7,8.8c4.8,0,8.8-3.9,8.8-8.8 C2191.3,1006.5,2187.4,1002.6,2182.5,1002.6z"></path> </g> </g> </svg> 