<?xml version="1.0" encoding="UTF-8"?> <!-- Generator: Adobe Illustrator 23.0.4, SVG Export Plug-In . SVG Version: 6.00 Build 0) --> <svg xmlns="http://www.w3.org/2000/svg" xmlns:xlink="http://www.w3.org/1999/xlink" id="Layer_1" x="0px" y="0px" viewBox="0 0 485 153" style="enable-background:new 0 0 485 153;" xml:space="preserve"> <style type="text/css"> .st0{fill:#FFFFFF;} </style> <g> <path class="st0" d="M101.6,141.8v-32.9h10.7c4,0,6.7,0.2,7.9,0.5c1.9,0.5,3.5,1.6,4.7,3.2c1.3,1.7,1.9,3.8,1.9,6.4 c0,2-0.4,3.7-1.1,5.1c-0.7,1.4-1.7,2.5-2.8,3.2c-1.1,0.8-2.3,1.3-3.4,1.6c-1.6,0.3-3.9,0.5-6.9,0.5h-4.3v12.4H101.6z M108.3,114.4 v9.3h3.6c2.6,0,4.4-0.2,5.3-0.5c0.9-0.3,1.6-0.9,2.1-1.6c0.5-0.7,0.8-1.6,0.8-2.6c0-1.2-0.4-2.2-1.1-3c-0.7-0.8-1.6-1.3-2.7-1.5 c-0.8-0.1-2.4-0.2-4.8-0.2H108.3z"></path> <path class="st0" d="M169.6,141.8h-7.2l-2.9-7.5h-13.2l-2.7,7.5h-7.1l12.8-32.9h7L169.6,141.8z M157.4,128.8l-4.5-12.2l-4.4,12.2 H157.4z"></path> <path class="st0" d="M184.2,141.8v-32.9h14c3.5,0,6.1,0.3,7.7,0.9c1.6,0.6,2.9,1.6,3.8,3.2c1,1.5,1.4,3.2,1.4,5.2 c0,2.5-0.7,4.5-2.2,6.1c-1.5,1.6-3.6,2.6-6.5,3c1.4,0.8,2.6,1.8,3.6,2.8c0.9,1,2.2,2.8,3.8,5.3l4,6.4h-8l-4.8-7.2 c-1.7-2.6-2.9-4.2-3.5-4.8c-0.6-0.7-1.3-1.1-2-1.4c-0.7-0.2-1.8-0.4-3.3-0.4h-1.3v13.7H184.2z M190.8,122.8h4.9 c3.2,0,5.2-0.1,6-0.4c0.8-0.3,1.4-0.7,1.9-1.4s0.7-1.5,0.7-2.5c0-1.1-0.3-2-0.9-2.7c-0.6-0.7-1.4-1.1-2.5-1.3 c-0.5-0.1-2.2-0.1-4.9-0.1h-5.2V122.8z"></path> <path class="st0" d="M235.8,141.8v-27.4h-9.8v-5.6h26.2v5.6h-9.7v27.4H235.8z"></path> <path class="st0" d="M267.6,141.8v-32.9h6.5l13.5,22v-22h6.2v32.9h-6.7l-13.3-21.5v21.5H267.6z"></path> <path class="st0" d="M311.8,141.8v-32.9h24.4v5.6h-17.8v7.3H335v5.5h-16.5v9h18.4v5.5H311.8z"></path> <path class="st0" d="M353.6,141.8v-32.9h14c3.5,0,6.1,0.3,7.7,0.9c1.6,0.6,2.9,1.6,3.8,3.2s1.4,3.2,1.4,5.2c0,2.5-0.7,4.5-2.2,6.1 c-1.5,1.6-3.6,2.6-6.5,3c1.4,0.8,2.6,1.8,3.6,2.8c0.9,1,2.2,2.8,3.8,5.3l4,6.4h-8l-4.8-7.2c-1.7-2.6-2.9-4.2-3.5-4.8 c-0.6-0.7-1.3-1.1-2-1.4c-0.7-0.2-1.8-0.4-3.3-0.4h-1.3v13.7H353.6z M360.2,122.8h4.9c3.2,0,5.2-0.1,6-0.4s1.4-0.7,1.9-1.4 s0.7-1.5,0.7-2.5c0-1.1-0.3-2-0.9-2.7c-0.6-0.7-1.4-1.1-2.5-1.3c-0.5-0.1-2.2-0.1-4.9-0.1h-5.2V122.8z"></path> </g> <rect x="28" y="121.7" class="st0" width="40" height="5.9"></rect> <rect x="417" y="121.7" class="st0" width="40" height="5.9"></rect> <g> <title>UKFast</title> <g> <g id="Layer_1-2"> <path class="st0" d="M212.4,10.5c-9.3-0.1-18.3,3.3-25.1,9.7c-6.8,5.9-10.6,14.5-10.5,23.5v34c0,0,13.3,0,17.9,0v-21h19 c4,0.1,7.9-1.4,10.8-4.2c2.9-2.6,4.5-6.3,4.5-10.2v-1.9h-33.9c0.6-3.4,2.4-6.5,4.9-8.9c3.3-3.3,7.9-5.1,12.6-5h6.4 c4,0.1,7.8-1.4,10.7-4.2c2.9-2.6,4.5-6.3,4.4-10.2v-1.8H212.4z"></path> <path class="st0" d="M295.9,77.7h-16.6c-8.2-0.6-16-4-22-9.7c-6.8-5.9-10.7-14.5-10.6-23.5c-0.1-9.1,3.7-17.7,10.5-23.7 c14.2-13,36.1-13,50.3,0c6.8,6,10.7,14.6,10.6,23.7v33.2h-18V44.5c0.1-4.6-1.8-9-5.2-12.2c-7-6.8-18.1-6.8-25.2,0 c-3.4,3.1-5.2,7.6-5.2,12.2c-0.1,4.6,1.8,8.9,5.1,12c3.3,3.3,7.9,5.1,12.6,5l0,0c3.6,0,7,1.6,9.5,4.2c2.6,2.7,4.1,6.3,4,10.1 L295.9,77.7z"></path> <path class="st0" d="M464.7,65.7c-2.9-2.7-6.8-4.2-10.8-4.2h-6.4c-4.7,0.1-9.2-1.7-12.6-5c-1.9-1.8-3.4-4.1-4.3-6.6h16.4 c4,0.1,7.9-1.4,10.8-4.2c2.9-2.5,4.6-6.2,4.6-10v-1.8h-32.7v-7.7c0-4.1-1.7-7.9-4.7-10.6c-3-2.9-7.1-4.5-11.2-4.4h-1.9v33.3 c-0.1,9,3.7,17.6,10.5,23.5c6.8,6.4,15.8,9.8,25.1,9.7h21.7v-1.8C469.2,72,467.5,68.3,464.7,65.7"></path> <path class="st0" d="M389.4,45.2c-3.1-2.4-6.7-4.2-10.6-5.2c-1.6-0.5-3.4-1-5.4-1.5c-4.7-1.1-8.6-2-11.6-2.8 c-2.3-0.5-4.5-1.2-6.6-2.2c-0.5-0.3-0.9-0.7-1.3-1.1c-0.7-1-0.9-2.3-0.5-3.5c0.6-1.9,2.4-3.2,4.4-3.2h4.2h12.5h2.4 c3.7,0.1,7.3-1.3,10-3.7c1.1-1.1,2.1-2.3,2.8-3.7c0.9-1.8,1.4-3.7,1.4-5.7V11H365c-10.1,0-17.5,2-22.4,5.9 c-4.7,3.6-7.5,9.3-7.4,15.2c-0.1,4.5,1.8,8.9,5.1,11.9c2.4,2.1,5.1,3.7,8,4.7c2.4,1,5,1.8,7.5,2.4l9.5,1.9 c1.9,0.3,3.9,0.8,5.7,1.5c0.9,0.4,1.7,1,2.2,1.8c0.7,1,0.9,2.3,0.5,3.5c-0.6,1.9-2.4,3.2-4.4,3.2h-4.2h-12.5h-2.4 c-3.7-0.2-7.4,1.1-10.2,3.5c-1.1,1-2.1,2.3-2.8,3.7c-0.9,1.8-1.4,3.7-1.4,5.7v1.7h30.4c8.8,0,15.6-2.1,20.4-6.2 c4.6-3.6,7.2-9.1,7.2-15C394.3,52.1,392.6,47.9,389.4,45.2"></path> <path class="st0" d="M45.1,77.7C35.8,77.9,26.8,74.4,20,68C13.3,62,9.4,53.4,9.5,44.4V11.1h1.9c4.2-0.1,8.2,1.5,11.2,4.4 c3,2.7,4.7,6.6,4.7,10.7v18.2c-0.1,4.6,1.8,9,5.2,12.1c3.3,3.3,7.8,5.1,12.5,5c4.7,0.1,9.2-1.8,12.5-5.1 c3.4-3.1,5.2-7.5,5.2-12.1V26.2c0-4.1,1.7-7.9,4.7-10.6c3-2.9,7.1-4.5,11.2-4.4h1.9v33.2c0.1,9.1-3.7,17.7-10.5,23.7 C63.4,74.5,54.4,77.9,45.1,77.7"></path> <path class="st0" d="M158.9,77.7h-18v-7.4c0-4.6-1.8-9-5.2-12.1c-3.3-3.3-7.8-5.1-12.4-5.1h-6.9v24.5H98.6V10.9h1.9 c4.2-0.1,8.2,1.5,11.2,4.4c3,2.7,4.7,6.6,4.7,10.6v11h6.8c4.7,0.1,9.2-1.7,12.5-5.1c3.4-3.1,5.3-7.5,5.2-12.1v-8.8h17.8v8.9 c0,5.2-1.3,10.4-3.8,15c-2.2,4-5.2,7.5-8.7,10.4c3.5,2.8,6.5,6.3,8.7,10.3c2.5,4.6,3.9,9.7,3.9,14.9V77.7z"></path> <path class="st0" d="M466.8,12.3h0.9c1,0,1.8-0.3,1.8-1.1s-0.5-1.2-1.7-1.2c-0.3,0-0.7,0-1,0V12.3z M466.8,16.6h-1.9V8.9 c1-0.1,2-0.2,3-0.2c0.9-0.1,1.9,0.1,2.7,0.6c0.5,0.4,0.8,1,0.8,1.6c-0.1,0.9-0.7,1.7-1.6,1.8l0,0c0.8,0.2,1.1,0.9,1.4,1.9 c0.1,0.6,0.3,1.3,0.6,1.9h-1.9c-0.3-0.6-0.5-1.2-0.6-1.9c-0.1-0.8-0.6-1.2-1.6-1.2h-0.9L466.8,16.6z M462,12.6 c-0.1,3.3,2.6,6.1,5.9,6.2c0.1,0,0.1,0,0.2,0c3.3,0,5.9-2.7,5.9-5.9c0-0.1,0-0.1,0-0.2c0.2-3.3-2.3-6.2-5.6-6.4 c-3.3-0.2-6.2,2.3-6.4,5.6C462,12.1,462,12.4,462,12.6 M476,12.6c0,4.4-3.6,8-8,8c-4.4,0-8-3.6-8-8c0.2-4.4,4-7.8,8.4-7.5 C472.5,5.3,475.8,8.6,476,12.6"></path> </g> </g> </g> </svg> 