<?xml version="1.0" encoding="UTF-8"?> <!-- Generator: Adobe Illustrator 26.2.1, SVG Export Plug-In . SVG Version: 6.00 Build 0) --> <svg xmlns="http://www.w3.org/2000/svg" xmlns:xlink="http://www.w3.org/1999/xlink" id="Layer_1" x="0px" y="0px" viewBox="0 0 576 512" style="enable-background:new 0 0 576 512;" xml:space="preserve"> <style type="text/css"> .st0{fill:#FFFFFF;} .st1{fill:#674399;} </style> <path class="st0" d="M58.6,84.1h461.5c29.2,0,52.9,23.6,52.9,52.9v176.2c0,29.2-23.6,52.9-52.9,52.9H354.6l22.7,55.6l-99.9-55.6 H58.9C29.6,365.9,6,342.3,6,313.1V136.9C5.8,107.9,29.4,84.1,58.6,84.1L58.6,84.1z"></path> <path class="st1" d="M38.3,132.2c3.2-4.4,8.1-6.7,14.5-7.1c11.8-0.9,18.4,4.6,20.1,16.6c7.1,48.2,15,89,23.3,122.4l50.5-96.1 c4.6-8.8,10.4-13.4,17.3-13.8c10.1-0.7,16.4,5.8,18.9,19.4c5.8,30.7,13.1,56.7,21.9,78.8c6-58.5,16.1-100.7,30.4-126.8 c3.5-6.5,8.5-9.7,15.2-10.1c5.3-0.5,10.1,1.2,14.5,4.6c4.4,3.5,6.7,7.8,7.1,13.1c0.2,4.1-0.5,7.6-2.3,11.1 c-9,16.6-16.4,44.5-22.4,83.2c-5.8,37.6-7.8,66.8-6.5,87.8c0.5,5.8-0.5,10.8-2.8,15.2c-2.8,5.1-6.9,7.8-12.2,8.3 c-6,0.5-12.2-2.3-18.2-8.5c-21.4-21.9-38.5-54.6-50.9-98.2c-15,29.5-26,51.6-33.2,66.4c-13.6,26-25.1,39.4-34.8,40.1 c-6.2,0.5-11.5-4.8-16.1-15.9c-11.8-30.2-24.4-88.5-38-174.9C33.7,141.7,35.1,136.4,38.3,132.2L38.3,132.2z M533.6,168.4 c-8.3-14.5-20.5-23.3-36.9-26.7c-4.4-0.9-8.5-1.4-12.4-1.4c-22.1,0-40.1,11.5-54.2,34.6c-12,19.6-18,41.3-18,65 c0,17.7,3.7,33,11.1,45.6c8.3,14.5,20.5,23.3,36.9,26.7c4.4,0.9,8.5,1.4,12.4,1.4c22.4,0,40.3-11.5,54.2-34.6 c12-19.8,18-41.5,18-65.2C544.9,195.8,541,180.9,533.6,168.4z M504.6,232.3c-3.2,15.2-9,26.5-17.5,34.1c-6.7,6-12.9,8.5-18.7,7.4 c-5.5-1.2-10.1-6-13.6-15c-2.8-7.1-4.1-14.3-4.1-21c0-5.8,0.5-11.5,1.6-16.8c2.1-9.5,6-18.7,12.2-27.4c7.6-11.3,15.7-15.9,24-14.3 c5.5,1.2,10.1,6,13.6,15c2.8,7.1,4.1,14.3,4.1,21C506.2,221.2,505.7,227,504.6,232.3L504.6,232.3z M389.3,168.4 c-8.3-14.5-20.7-23.3-36.9-26.7c-4.4-0.9-8.5-1.4-12.4-1.4c-22.1,0-40.1,11.5-54.2,34.6c-12,19.6-18,41.3-18,65 c0,17.7,3.7,33,11.1,45.6c8.3,14.5,20.5,23.3,36.9,26.7c4.4,0.9,8.5,1.4,12.4,1.4c22.4,0,40.3-11.5,54.2-34.6 c12-19.8,18-41.5,18-65.2C400.4,195.8,396.7,180.9,389.3,168.4z M360.1,232.3c-3.2,15.2-9,26.5-17.5,34.1c-6.7,6-12.9,8.5-18.7,7.4 c-5.5-1.2-10.1-6-13.6-15c-2.8-7.1-4.1-14.3-4.1-21c0-5.8,0.5-11.5,1.6-16.8c2.1-9.5,6-18.7,12.2-27.4c7.6-11.3,15.7-15.9,24-14.3 c5.5,1.2,10.1,6,13.6,15c2.8,7.1,4.1,14.3,4.1,21C361.9,221.2,361.2,227,360.1,232.3L360.1,232.3z"></path> </svg> 