<?xml version="1.0" encoding="UTF-8"?> <!-- Generator: Adobe Illustrator 23.0.4, SVG Export Plug-In . SVG Version: 6.00 Build 0) --> <svg xmlns="http://www.w3.org/2000/svg" xmlns:xlink="http://www.w3.org/1999/xlink" id="Layer_1" x="0px" y="0px" viewBox="0 0 907.7 210.6" style="enable-background:new 0 0 907.7 210.6;" xml:space="preserve"> <style type="text/css"> .st0{fill-rule:evenodd;clip-rule:evenodd;fill:#9C5C8F;} .st1{fill-rule:evenodd;clip-rule:evenodd;fill:#FFFFFF;} </style> <g> <path class="st0" d="M22,34.5c4.1-9.9,14.3-16.9,25.1-16.9c80.9,0,161.7,0,242.6,0c7-0.2,14,2.5,19.2,7.2 c5.9,5.3,9.3,13.2,9.1,21.2c0,31,0.1,62,0,93c-0.1,14-12.3,26.5-26.3,26.9c-29.5,0.1-59,0-88.5,0.1c4,9.8,8,19.5,11.9,29.3 c-17.6-9.7-35-19.7-52.6-29.2c-38.8-0.3-77.6,0-116.4-0.2c-14-0.4-26.2-12.9-26.2-26.9c-0.1-30.3,0-60.7-0.1-91 C19.7,43.4,20.1,38.8,22,34.5L22,34.5z"></path> <path class="st1" d="M140.6,36.8c4.5-4.8,13-3.2,16.3,2.2c1.8,2.8,1.9,6.6,0.5,9.6c-6.2,12.3-8.8,25.9-11.2,39.3 c-2.8,17.5-5.2,35.2-4.3,53c0.3,4.5-1.9,10-6.8,11.1c-4.6,1-8.8-2-11.7-5.2c-13.2-14.2-20.7-32.6-26.1-51 c-5.4,10.7-10.9,21.5-16.2,32.3c-3.7,7.3-7.6,14.8-13.5,20.6c-2.5,2.5-6.7,4.7-9.9,2.2c-4.8-4.2-6-11-8.1-16.8 c-7.8-26.9-12.2-54.6-16.7-82.2c-1-4.6,0.9-10.1,5.5-11.9c3.7-1.4,8.4-1.6,11.6,1.1c2.2,2,2.8,5,3.2,7.8c3.2,21.3,7,42.6,12.1,63.6 C74.1,95.8,82.9,79,91.7,62.2c1.3-2.5,2.9-4.9,5.3-6.4c3.2-2.1,8-1.9,10.7,1c2.3,2.4,3,5.7,3.6,8.8c2.6,13.9,6.2,27.6,11.4,40.7 c2.2-19.8,5-39.8,12.2-58.5C136.5,44,138,40,140.6,36.8L140.6,36.8z M190.2,47.4c9.5-1.2,19.8,2,26.2,9.2c5.3,6,8.2,13.7,9.2,21.6 c1.6,13.4-0.8,27.4-7.3,39.3c-3.6,6.8-8.4,13.3-15.1,17.3c-9.9,6-23.1,5.3-32.6-1.1c-7.6-5.2-11.9-14.1-13.6-22.9 c-3.5-20,2.5-42.4,17.7-56.3C179.1,50.6,184.5,48.1,190.2,47.4L190.2,47.4z M192.2,68c-4.6,1.5-7.5,5.7-9.9,9.6 c-6.2,9.9-7.9,23-3,33.8c1.3,2.8,3.4,5.8,6.7,6.4c3.5,0.6,6.8-1.4,9.3-3.6c5.6-4.8,8.4-12.1,9.8-19.2c1.5-8.1,0.7-17.1-4-24 C199.2,68.2,195.5,66.9,192.2,68L192.2,68z M266.5,47.4c9.3-1.2,19.4,1.7,25.9,8.6c5.8,6.3,9,14.7,9.9,23.1c1.4,13-1,26.4-7.2,37.9 c-3.7,7-8.6,13.7-15.5,17.7c-9.5,5.7-22,5.2-31.3-0.4c-6.3-3.8-10.6-10.3-13-17.2c-6.7-20.9-1-45.6,14.3-61.4 C254.1,51.4,260.1,48.2,266.5,47.4L266.5,47.4z M268.5,68c-5,1.8-8,6.5-10.6,10.9c-5.6,9.9-7,22.6-1.9,33c1.4,2.9,3.8,5.8,7.2,5.9 c3.7,0.1,7-2.2,9.5-4.7c5.6-5.6,8.2-13.5,9.1-21.2c0.9-7.2-0.3-15-4.5-21.1C275.5,68.1,271.7,66.9,268.5,68L268.5,68z"></path> <path class="st1" d="M368.2,50.2c8.1-1.8,16.6-1.5,24.7,0.3c0,6.6,0,13.2,0,19.8c-6.6-1.6-14-3.1-20.5,0 c-7.7,3.8-11.9,12.4-12,20.7c-0.4,8.3,2.3,17.5,9.7,22.2c6.7,4.5,15.3,3.5,22.7,1.4c0,6.6,0,13.2,0,19.8c-9.8,2.8-20.5,2.5-30-1.1 c-11.5-4.3-20.6-14.2-24.1-25.9c-2.6-8.9-3-18.5-0.8-27.6C341.4,65.3,353.7,53.4,368.2,50.2L368.2,50.2z M427.8,49.2 c10-1.1,20.8,0.4,28.9,6.8c7.8,6,11.7,15.8,13,25.3c1.4,10.4,1.1,21.2-2.2,31.3c-2.7,8.5-8.5,16.4-16.7,20.3 c-8.4,4-18.2,4.2-27.1,2.2c-8.3-1.9-15.6-7.3-19.7-14.7c-5.7-10-6.7-21.8-6.3-33.1c0.5-9.7,2.9-19.9,9.5-27.3 C412.4,53.8,419.9,50.1,427.8,49.2L427.8,49.2z M430.9,68.1c-4.3,1.1-6.7,5.3-7.8,9.3c-2.1,7.9-1.8,16.2-1.2,24.2 c0.5,4.4,1,9.2,4.1,12.6c4.1,4.7,12.4,4,16.2-0.7c2.5-3.1,3.1-7.1,3.7-10.9c0.8-6.8,1-13.7,0-20.5c-0.7-4.1-1.8-8.3-4.8-11.4 C438.4,68,434.4,67.2,430.9,68.1L430.9,68.1z M822.1,50.5c8.5-2.2,17.4-1.9,26-0.1c0.2,6.6,0,13.3,0.1,19.9c-6.5-1.6-13.6-3-20-0.2 c-7.3,3.3-11.7,11.1-12.3,19c-0.9,8.8,1.5,18.8,9.2,24c6.8,4.7,15.5,3.7,23,1.6c-0.1,6.7,0.2,13.3-0.2,20 c-10.4,2.7-21.8,2.3-31.7-2c-10.9-4.8-19.4-14.6-22.5-26.1c-2.4-8.8-2.7-18.3-0.5-27.1C796.8,65.5,808.3,54.1,822.1,50.5 L822.1,50.5z M482.9,51.2c9.4,0,18.9,0,28.3,0c3.4,15.3,6.7,30.6,9.5,46.1c2.7-15.5,6.3-30.8,10-46.1c9.7,0,19.3,0,29,0 c3.8,27.7,7.5,55.4,11.2,83.1c-7.4,0-14.8,0-22.2,0c-2.1-19-3.9-37.9-6-56.9c-4.5,19-9.2,37.9-13.8,56.9c-5,0-10.1,0-15.1,0 c-4.8-19-9.6-38-14.5-57c-1.9,19-3.8,38-5.7,57c-7.1,0-14.2,0-21.2,0C475.8,106.5,479.3,78.9,482.9,51.2L482.9,51.2z M584.4,51.2 c9.4,0,18.9,0,28.3,0c3.4,15.3,6.6,30.6,9.5,46c2.7-15.5,6.3-30.7,10-46c9.6,0,19.3,0,28.9,0c3.7,27.7,7.5,55.4,11.2,83.1 c-7.4,0-14.8,0-22.2,0c-2.1-19-4-37.9-6-56.9c-4.6,19-9.1,37.9-13.8,56.9c-5,0-10.1,0-15.1,0c-4.8-19-9.7-38-14.5-57.1 c-1.9,19-3.8,38-5.7,57c-7.1,0-14.2,0-21.2,0C577.3,106.5,580.8,78.8,584.4,51.2L584.4,51.2z M678.6,51.4c15.1-0.3,30.3,0,45.5-0.1 c0,5.9,0,11.8,0,17.7c-7.6,0.1-15.3,0-22.9,0c0,5.1,0,10.1,0,15.2c6.6,0,13.2,0,19.9,0c0,5.7,0,11.5,0,17.2c-6.6,0-13.2,0-19.9,0 c0,5.1,0,10.1,0,15.2c7.7,0,15.4,0,23,0c0,5.9,0,11.8,0,17.7c-15.2,0-30.3,0-45.5,0C678.6,106.7,678.9,79.1,678.6,51.4L678.6,51.4z M730.6,51.2c9.5,0,19-0.1,28.5,0.1c8.9,0.3,18.4,2.5,25.1,8.8c6,5.6,8.1,14.7,5.8,22.5c-1.8,6.3-6.6,11.5-12.5,14.3 c5.9,12.5,11.9,24.9,17.9,37.4c-7.9,0-15.8,0-23.7,0c-6.2-12.7-12.2-25.5-18.5-38.2c-0.2,12.7,0,25.5-0.1,38.2c-7.5,0-15,0-22.5,0 C730.6,106.5,730.6,78.8,730.6,51.2L730.6,51.2z M753,67.1c0,6.6,0,13.2,0,19.8c4.1-0.3,8.5-0.4,11.9-2.9c4-2.9,3.5-9,1-12.7 C762.8,67.6,757.4,67.5,753,67.1L753,67.1z M854.4,51.2c15.1,0,30.3,0,45.4,0c0,5.9,0,11.8,0,17.7c-7.7,0-15.4,0-23,0 c0,5.1,0,10.1,0,15.2c6.6,0,13.2,0,19.9,0c0,5.7,0,11.5,0,17.2c-6.6,0-13.2,0-19.8,0c0,5.1,0,10.1,0,15.2c7.7,0,15.4,0,23.1,0 c0,5.9,0,11.8,0,17.7c-15.1,0-30.3,0-45.5,0C854.4,106.5,854.5,78.9,854.4,51.2L854.4,51.2z"></path> </g> </svg> 