<?xml version="1.0" encoding="UTF-8"?> <!-- Generator: Adobe Illustrator 26.2.1, SVG Export Plug-In . SVG Version: 6.00 Build 0) --> <svg xmlns="http://www.w3.org/2000/svg" xmlns:xlink="http://www.w3.org/1999/xlink" id="Layer_1" x="0px" y="0px" viewBox="0 0 256 256" style="enable-background:new 0 0 256 256;" xml:space="preserve"> <style type="text/css"> .st0{fill:#FFFFFF;stroke:#FFFFFF;stroke-width:3;stroke-miterlimit:10;} </style> <desc>Created with Fabric.js 1.7.22</desc> <g transform="translate(128 128) scale(0.72 0.72)"> <g transform="translate(-175.05 -175.05000000000004) scale(3.89 3.89)"> <path class="st0" d="M82.3,63.3h-8.4c-0.5,0-1-0.4-1-1c0-0.5,0.4-1,1-1h8.4c2.6,0,4.6-2.1,4.6-4.6V19c0-2.6-2.1-4.6-4.6-4.6H26.2 c-0.5,0-1-0.4-1-1s0.4-1,1-1h56.1c3.6,0,6.6,3,6.6,6.6v37.7C88.9,60.3,86,63.3,82.3,63.3z"></path> <path class="st0" d="M62.7,37.8l16.9-15.5c0.4-0.4,0.4-1,0.1-1.4c-0.4-0.4-1-0.4-1.4-0.1L54.3,42.9L32.9,23.3 c-0.4-0.4-1-0.3-1.4,0.1c-0.4,0.4-0.3,1,0.1,1.4l14.2,13.1l-8.1,7.4c-0.4,0.4-0.4,1-0.1,1.4c0.2,0.2,0.5,0.3,0.7,0.3 c0.2,0,0.5-0.1,0.7-0.3l8.2-7.5l6.3,5.8c0.2,0.2,0.4,0.3,0.7,0.3c0.2,0,0.5-0.1,0.7-0.3l6.3-5.8l17.1,15.6 c0.2,0.2,0.4,0.3,0.7,0.3c0.3,0,0.5-0.1,0.7-0.3c0.4-0.4,0.3-1-0.1-1.4L62.7,37.8z"></path> <path class="st0" d="M51,76c-9.7,0-22.4-8.1-32-17.8C6,45.3-4.2,27.1,4,17.7c0.4-0.4,0.9-0.8,1.5-1c1.1-0.4,3.1-1.3,5.8-2.5l0,0 c1.2-0.5,2.4-1.1,3.3-1.5c1.4-0.6,3.1-0.1,3.9,1.3l7.7,13c0.6,0.9,0.6,2.1,0.1,3.1L21.6,39c-0.2,0.5-0.2,1,0.2,1.4l14.9,14.9 c0.4,0.4,0.9,0.4,1.4,0.2l8.9-4.8c1-0.5,2.1-0.5,3.1,0.1l13,7.7c1.4,0.8,1.9,2.5,1.3,3.9c-0.4,0.9-0.9,2.1-1.5,3.3v0 c-1.2,2.8-2,4.8-2.5,5.8c-0.2,0.6-0.6,1.1-1,1.5C57.1,75.1,54.2,76,51,76z M12.1,16c-2.8,1.2-4.7,2-5.8,2.5 c-0.3,0.1-0.6,0.3-0.8,0.5C-1.9,27.5,8,44.5,20.3,56.8S49.7,79,58.1,71.6c0.2-0.2,0.4-0.4,0.5-0.7c0.1-0.3,0.3-0.8,0.5-1.3 l-0.1,0.1l2.1-4.7c0.5-1.2,1.1-2.4,1.5-3.3c0.2-0.5,0-1.2-0.5-1.5l-13-7.7c-0.3-0.2-0.8-0.2-1.1,0L39,57.2 c-1.2,0.7-2.7,0.4-3.7-0.5L20.5,41.8c-1-1-1.2-2.5-0.5-3.7l4.8-8.9c0.2-0.4,0.2-0.8,0-1.1l-7.7-13c-0.3-0.5-0.9-0.7-1.5-0.5 C14.6,14.9,13.3,15.5,12.1,16L12.1,16z M62,65.3l-0.6-0.6L62,65.3z"></path> </g> </g> </svg> 